<?xml version="1.0" encoding="utf-8"?>
<!-- Generator: Adobe Illustrator 23.0.1, SVG Export Plug-In . SVG Version: 6.00 Build 0)  -->
<svg version="1.1" id="Layer_1" xmlns="http://www.w3.org/2000/svg" xmlns:xlink="http://www.w3.org/1999/xlink" x="0px" y="0px"
	 viewBox="0 0 200 200" style="enable-background:new 0 0 200 200;" xml:space="preserve">
<style type="text/css">
	.st0{fill:#2A1B18;stroke:#2C1D1A;stroke-miterlimit:10;}
	.st1{fill:#2A1B18;stroke:#2A1B18;stroke-miterlimit:10;}
	.st2{fill:#2A1B18;stroke:#40220F;stroke-miterlimit:10;}
	.st3{fill:none;stroke:#2B1C19;stroke-width:2;stroke-miterlimit:10;}
	.st4{fill:none;stroke:#40220F;stroke-width:2;stroke-miterlimit:10;}
	.st5{fill:none;}
</style>
<g>
	<title>Asset 1</title>
	<g>
		<g id="Layer_5">
			<path class="st0" d="M58.4,147h83v0.9c0,0-5.4,0-8.3,1.6c-2.9,1.6-3.2,2.3-3.2,2.3H67c0,0-5.2-2.9-8.1-3.3
				C56,148.1,58.4,147,58.4,147z"/>
			<path class="st1" d="M59.1,146.9c0,0-0.9-18.6,16.1-26.6s24.5-7.3,24.9-7.4s-2.1-5-3.1-5.5s0.4-2.2,0.4-2.2h7.3l2.4,1.3
				c0,0-5.3,6.2-4.3,6.2s19.7,1.9,28.6,9.6s10.1,12.3,11.1,14.6c1,2.3,3.1,11.2,2.7,12c-0.4,0.9-2.1,0-2.1,0s-6.5-32.6-38.4-29.2
				S72,147.2,72,147.2l-2.4-0.2c-1.3-8,5.1-16.2,15.7-24.7c-7,5.2-14.8,8.3-17.3,24.6l-3.2,0.2c-0.1-9,4.6-17.1,12.9-24.7
				c-9.8,6.1-14.9,14.3-15,24.8L59.1,146.9z"/>
			<path class="st1" d="M85.9,135.7c5.5-6.7,11.8-11.9,21.2-12.3c6.3-0.6,10.9,0.8,15.6,2.2c-3.5-2.3-7.1-4.5-15.9-4.5
				C96.3,122,89.7,127,85.1,134L85.9,135.7z"/>
			<path class="st0" d="M90.2,134.7c0,0,9.6-7.8,18.4-7.4c5,0.2,10,1.2,14.8,2.9c0,0-0.3-2.5-1.8-2.9s-9.2-2.8-14.8-1.5
				S94.3,128.6,90.2,134.7z"/>
			<path class="st2" d="M99.4,134c0,0,12.2-3.7,16.1-3.1c3.9,0.6-5.5-2.3-10.2-0.9s-7.4,1.9-7.1,2.6C98.6,133.2,99,133.7,99.4,134z"
				/>
			<path class="st3" d="M91.7,86.1c0,0,8.5,3.3,9.4,4.7s-5.3-5.6-2-6s11.8,0.4,16.9,6.9s5.4,8,5.8,9.6"/>
			<path class="st4" d="M115.6,83.1c9.4,1.8,13.8,11.1,15.6,24.4c1.2-2.6,2.6-4.9,5.4-5c6.3,4.3,2.2,13.9-1.7,23.4
				c1.7,0.2,2.1,0.7,0.8,1.5l4.1-4.8"/>
		</g>
	</g>
	<path id="SVGID_x5F_1_x5F_" class="st5" d="M172.6,94.6c18.1,38.9,1.3,85.1-37.6,103.2s-85.1,1.3-103.2-37.6S30.4,75.1,69.3,57
		S154.4,55.7,172.6,94.6z"/>
	<text>	<textPath  xlink:href="#SVGID_x5F_1_x5F_" startOffset="77.1484%">
<tspan  style="font-family:'ImprintMT-Shadow'; font-size:21px;">FAMILY OF EATERIES</tspan>	</textPath>
</text>
	<rect x="73.1" y="35.1" class="st5" width="18.6" height="6.9"/>
	<rect x="26.5" y="89.4" class="st5" width="1.1" height="31.7"/>
	<rect x="161.3" y="123.8" class="st5" width="18.6" height="6.9"/>
	<rect x="57.5" y="76.8" class="st5" width="1.6" height="6.3"/>
</g>
</svg>
