<svg xmlns="http://www.w3.org/2000/svg" viewBox="0 0 150.43 63.45"><defs><style>.cls-1{fill:#903;}.cls-1,.cls-2{stroke:#903;stroke-miterlimit:10;stroke-width:0.1px;}.cls-2{fill:#fff;}</style></defs><title>Asset 1</title><g id="Layer_2" data-name="Layer 2"><g id="Layer_2-2" data-name="Layer 2"><path class="cls-1" d="M21.76,23.3c-1.63-1.78-3.75-3.13-8.47-2.17C4.75,24.46-.07,29.51.05,36.86c0,0,2.72,19,21.71,23.88s27.4.81,34.72-2.17,18.72-9,18.72-9,31.21,19.81,49.93,11.94,20.07-13.89,23.33-19.29,3.8-20-10-21.13-11.12,3-11.12,3S149.54,23,147.1,34.42,140.05,58.84,117,58s-39.32-9.5-39.32-9.5l4-1.36s2.44,2.72,5.15,2.72,4.88-1.36,4.88-2.72-2-3.52-3.73-3.52a45.74,45.74,0,0,0-5.76.81l-4.59-3.53s7.3-3.52,13.27-4.34,16.28-1.32,17.09,5.58-10.58,7.44-12.48,3.65-2.71.54-1.35,2.17,7.32,4.07,11.39,1.62,8.68-7,4.34-10.58-7.87-7.59-15.46-6.24-19.25,6.79-19.25,6.79-14.94-7.87-25-8.14S28.89,48.53,42,50.16s16.4-3,15.84-4.34S43.55,52.06,42,47.17s2-11.66,8.51-11.66,13.29.54,17.9,2.71L73,40.39l-5.42,3.8s-3.84-1.36-5.31-.27-3.43,2.71-2.72,4.34,4.43.54,6.5-.27,5.78,0,5.78,0C55.5,64.21-9.9,63.75,5.26,29.56c2.1-4.76,4.72-4.71,10.6-5.14S21.76,23.3,21.76,23.3Z"/><path class="cls-2" d="M70.56,45.39l4.65-3.28,4.43,3.28S75.48,47,75.21,47,70.56,45.39,70.56,45.39Z"/><path class="cls-2" d="M84.49,46.17l2,1.73,2-.86C88.25,45.86,84.49,46.17,84.49,46.17Z"/><path class="cls-2" d="M62,46.14v1.51s-1,.27.37.25a5.69,5.69,0,0,0,3-.88c.52-.41,1.11-.69,0-.88A19.22,19.22,0,0,0,62,46.14Z"/><path class="cls-1" d="M75.1,31.75s2.32-.94,2.57-2.19a24.87,24.87,0,0,0,0-4.5,12.32,12.32,0,0,0,3.71-4.7c.94-2.61,1.67-9.61,1-11S77.81-1.26,75.1.21s-6.25,6-6.67,7.41-.52,10.24,0,11,2.4,4.7,3.24,6.05.41,4.09.73,4.92S75.1,31.75,75.1,31.75Z"/><path class="cls-1" d="M75.37,3.55S71.14,6.26,71,9.4a86.61,86.61,0,0,0,0,9.19c.21,1.56.86,4.9,2.1,6.37s.61,4.07.61,4.07,1.14,1,1.35,1.15a1.7,1.7,0,0,0,1.58-1.05,18.34,18.34,0,0,0,0-4.17s3.13-3.66,3.65-5.64-.86-8.78-.69-9.61S75.37,3.55,75.37,3.55Z"/><path class="cls-1" d="M69.26,30.2s-3.65.54-4.49,0-7.31-6.08-8.46-10.78a23,23,0,0,1-.83-7.31,27.3,27.3,0,0,1,6.87,3.79,25.64,25.64,0,0,1,6.5,8.53A11.69,11.69,0,0,1,69.26,30.2Z"/><path class="cls-1" d="M65.19,27.05s-1.36-4.55-1.88-5.78-6.58-7.07-6.58-7.07,0,4.14,2.3,6.61S65.19,27.05,65.19,27.05Z"/><path class="cls-1" d="M81.69,30.2s4.39.41,5.64-.64,5.85-8,6.27-8.29,1.77-9,1.56-9.16S83.83,18,82.66,22.76A26.11,26.11,0,0,0,81.69,30.2Z"/><path class="cls-1" d="M85.35,27.05s4.38-3.76,6.26-7a11.89,11.89,0,0,0,1.78-5.85S87,18,86.53,21.19A50,50,0,0,1,85.35,27.05Z"/></g></g></svg>