<svg xmlns="http://www.w3.org/2000/svg" viewBox="0 0 58.04 59.5"><defs><style>.cls-1{opacity:0.9;}.cls-2{fill:#d3f7f0;}</style></defs><title>Asset 3</title><g id="Layer_2" data-name="Layer 2"><g id="Layer_1-2" data-name="Layer 1"><g class="cls-1"><path class="cls-2" d="M43.3,11.9a17.65,17.65,0,0,0-11.75,4.42c1-9.9,7-13.94,7-13.94L33.78,0a28.41,28.41,0,0,0-7,16.55,17.69,17.69,0,0,0-12-4.65C5.22,11.9-1.92,19,.46,33.32,3.59,52.1,12.36,59.5,19.5,59.5c4.76,0,9.52-4.76,9.52-4.76s4.76,4.76,9.52,4.76c7.14,0,15.91-7.4,19-26.18C60,19,52.82,11.9,43.3,11.9Z"/></g></g></g></svg>