<svg id="Layer_1" data-name="Layer 1" xmlns="http://www.w3.org/2000/svg" viewBox="0 0 193.56 140.06">
  <defs>
    <style>
      .cls-1, .cls-4 {
        fill: #911d34;
      }

      .cls-1, .cls-2, .cls-3, .cls-4 {
        stroke: #911d34;
        stroke-miterlimit: 10;
        stroke-width: 0.1px;
      }

      .cls-2 {
        fill: none;
      }

      .cls-3 {
        fill: #fff;
      }

      .cls-4 {
        font-size: 30px;
        font-family: Futura-Medium, Futura;
        font-weight: 500;
      }

      .cls-5 {
        letter-spacing: -0.04em;
      }

      .cls-6 {
        letter-spacing: 0.01em;
      }

      .cls-7 {
        letter-spacing: -0.02em;
      }
    </style>
  </defs>
  <title>rest1Logo(revised)</title>
  <g id="Layer_2-2" data-name="Layer 2-2">
    <path class="cls-1" d="M80.18,120c-1.87-2-4.31-3.59-9.72-2.49-9.81,3.83-15.34,9.62-15.2,18.06,0,0,3.12,21.81,24.92,27.41s31.45.93,39.85-2.49,21.49-10.33,21.49-10.33,35.82,22.73,57.3,13.7,23-15.94,26.78-22.14,4.36-23-11.48-24.25-12.76,3.44-12.76,3.44,25.48-1.25,22.68,11.86-8.09,28-34.55,27.06-45.13-10.9-45.13-10.9l4.59-1.56s2.8,3.12,5.91,3.12,5.61-1.56,5.61-3.12-2.3-4-4.29-4a52.82,52.82,0,0,0-6.61.93l-5.27-4.06s8.38-4,15.24-5,18.68-1.51,19.61,6.41-12.14,8.54-14.32,4.19-3.11.62-1.55,2.49,8.4,4.67,13.07,1.86,10-8,5-12.15-9-8.71-17.74-7.16-22.1,7.8-22.1,7.8-17.14-9-28.69-9.35-24.44,19.65-9.39,21.52,18.82-3.44,18.18-5-16.4,7.16-18.18,1.55,2.3-13.38,9.77-13.38,15.25.62,20.54,3.11l5.27,2.49L132.77,144s-4.41-1.56-6.09-.31-3.94,3.11-3.13,5,5.09.62,7.46-.31,6.64,0,6.64,0c-18.75,18.62-93.81,18.09-76.41-21.15,2.41-5.46,5.42-5.41,12.17-5.9S80.18,120,80.18,120Z" transform="translate(-50.69 -93.24)"/>
    <path class="cls-2" d="M136.19,145.33l5.34-3.77,5.08,3.77s-4.77,1.85-5.08,1.85S136.19,145.33,136.19,145.33Z" transform="translate(-50.69 -93.24)"/>
    <path class="cls-3" d="M152.18,146.22l2.29,2,2.3-1C156.49,145.87,152.18,146.22,152.18,146.22Z" transform="translate(-50.69 -93.24)"/>
    <path class="cls-3" d="M126.37,146.19v1.73s-1.15.31.42.29a6.54,6.54,0,0,0,3.44-1c.6-.47,1.28-.79,0-1A22.62,22.62,0,0,0,126.37,146.19Z" transform="translate(-50.69 -93.24)"/>
    <path class="cls-1" d="M141.4,129.67s2.66-1.08,2.95-2.51a27.9,27.9,0,0,0,0-5.17,14.2,14.2,0,0,0,4.26-5.39c1.08-3,1.92-11,1.15-12.63s-5.25-12.19-8.36-10.5-7.17,6.89-7.65,8.51-.6,11.75,0,12.62,2.75,5.4,3.71,7,.47,4.69.84,5.64S141.4,129.67,141.4,129.67Z" transform="translate(-50.69 -93.24)"/>
    <path class="cls-1" d="M141.71,97.31s-4.85,3.11-5,6.71a97.7,97.7,0,0,0,0,10.55c.24,1.79,1,5.62,2.41,7.31s.7,4.67.7,4.67,1.3,1.15,1.55,1.32a2,2,0,0,0,1.81-1.2,21.31,21.31,0,0,0,0-4.79s3.59-4.2,4.19-6.47-1-10.08-.79-11S141.71,97.31,141.71,97.31Z" transform="translate(-50.69 -93.24)"/>
    <path class="cls-1" d="M134.7,127.89s-4.19.62-5.16,0-8.39-7-9.71-12.37a26.7,26.7,0,0,1-1-8.39,31.32,31.32,0,0,1,7.89,4.35,29.45,29.45,0,0,1,7.46,9.79A13.4,13.4,0,0,1,134.7,127.89Z" transform="translate(-50.69 -93.24)"/>
    <path class="cls-1" d="M130,124.28s-1.56-5.22-2.16-6.64-7.55-8.11-7.55-8.11,0,4.75,2.64,7.59S130,124.28,130,124.28Z" transform="translate(-50.69 -93.24)"/>
    <path class="cls-1" d="M149,127.89s5,.47,6.48-.73,6.71-9.18,7.19-9.52,2-10.33,1.8-10.51-13,6.76-14.35,12.22A30.09,30.09,0,0,0,149,127.89Z" transform="translate(-50.69 -93.24)"/>
    <path class="cls-1" d="M153.17,124.28s5-4.32,7.18-8a13.52,13.52,0,0,0,2-6.71s-7.33,4.36-7.87,8A58.93,58.93,0,0,1,153.17,124.28Z" transform="translate(-50.69 -93.24)"/>
    <text class="cls-4" transform="translate(0.05 103.47)"><tspan class="cls-5">T</tspan><tspan class="cls-6" x="13.21" y="0">a</tspan><tspan class="cls-7" x="31.46" y="0">v</tspan><tspan x="45.97" y="0">ola Cucina</tspan></text>
  </g>
</svg>
