<?xml version="1.0" encoding="utf-8"?>
<!-- Generator: Adobe Illustrator 23.0.1, SVG Export Plug-In . SVG Version: 6.00 Build 0)  -->
<svg version="1.1" id="Layer_1" xmlns="http://www.w3.org/2000/svg" xmlns:xlink="http://www.w3.org/1999/xlink" x="0px" y="0px"
	 viewBox="0 0 467.3 371.6" style="enable-background:new 0 0 467.3 371.6;" xml:space="preserve">
<style type="text/css">
	.st0{fill:none;stroke:#B8844D;stroke-width:2;stroke-miterlimit:10;}
	.st1{fill:none;stroke:#CF9F6D;stroke-width:3;stroke-miterlimit:10;}
	.st2{fill:none;stroke:#CF9F6D;stroke-width:2;stroke-miterlimit:10;}
	.st3{fill:#F8B62D;}
	.st4{fill:none;}
	.st5{display:none;fill:#E26D1E;stroke:#E26D1E;stroke-miterlimit:10;}
	.st6{fill:#D68D4A;}
	.st7{fill:none;stroke:#D68D4A;stroke-width:5;stroke-miterlimit:10;}
</style>
<title>Asset 1</title>
<g>
	<g>
		<g id="cup">
			<path class="st0" d="M202.9,240.7c-59.3-3.9-119.4-11.2-135.8-8.8c-13.7,2-13.7,74.9,16,74.9s149.5-27.6,149.5-27.6
				S238.3,240.7,202.9,240.7z"/>
			<path class="st1" d="M252.3,227.3c46.2,16.2,77.4,31.2,80.9,40.4s-6.9,53.1-49.7,55.5c-6.9-1.2-57.8-49.7-57.8-49.7
				S210.7,229.6,252.3,227.3z"/>
			<path class="st2" d="M163.3,268.9c-20.8,3.5-4.6,58.9,17.3,57.8s69.3-50.3,69.3-50.3l-24.3-24.8
				C225.7,251.6,184.1,259.7,163.3,268.9z"/>
			<path class="st1" d="M278.8,236.6c35.8-4.6,117.1-2.4,125.4,0.6c12.7,4.6,4,59.5-13.3,61.8c-29,3.9-100.5-26.6-100.5-26.6
				L278.8,236.6z"/>
			<path class="st3" d="M119.2,122.4c-9.2-17.9-21.4-41-1.7-53.2C130.2,74.5,138.9,108.6,119.2,122.4z"/>
			<path class="st3" d="M283,123.9c-13.9-9.2-16.2-29.5,0-36.4C296.8,92.1,298,110,283,123.9z"/>
			<path class="st3" d="M317.4,87.5c-14.4-15-11.1-34.7,1-40.4C331.7,56.9,334.7,79.4,317.4,87.5z"/>
			<path class="st4" d="M167.2,65.8c-6.9,8.1-5.2,25.4,3.5,25.4S174.7,69.8,167.2,65.8z"/>
			<path class="st4" d="M118.4,81.4c-4.6,6.3-4.1,19.6,0.6,21.4S124.1,86.6,118.4,81.4z"/>
			<path class="st4" d="M321.5,88.9c-9.2,8.1-2.9,20.2,0.6,19.6C325.6,107.9,324.4,92.9,321.5,88.9z"/>
			<path class="st4" d="M282.1,93.1c-4.5,6.3-5.4,22.6,4.1,19C294.3,106.2,283.8,102.9,282.1,93.1z"/>
			<path class="st3" d="M81.7,306.6c26.9-18.2-4.3-73.1-17.9-72.5C53.9,246.3,56.1,304.5,81.7,306.6z"/>
			<path class="st3" d="M193.9,305.3c-3.6-24.1-16.5-38.5-27.5-37.7c-1.1,0.4-8,2.8-10.5,6.7c-1,1.9-1.6,4-1.9,6.1l-0.1,9.3
				c1.8,16.9,13.2,37.7,26.7,37c3.7-0.4,7.3-1.5,10.7-3.2C193.9,319,195.1,313,193.9,305.3z"/>
			<path class="st3" d="M331.5,285c-0.8-13.3-9-23.1-24.4-23.1c-25.2,0-42.2,58-22.2,61.1C312.8,320.9,326.5,300.8,331.5,285z"/>
			<path class="st3" d="M404.2,237.1c-0.2-0.1-0.4-0.1-0.5-0.1c-10.5,9.6-29.5,45.6-20.9,62.2c2.7,0.1,5.4,0.1,8.1-0.3
				C408.2,296.6,416.9,241.7,404.2,237.1z"/>
			<path class="st5" d="M58.3,311.5h4.4v14.6H79v-14.6h4.4v34.8H79v-16.4H62.7v16.4h-4.4V311.5z"/>
			<path class="st5" d="M92.9,318.8h17.3v3.5H97.3v8h10.9v3.3H97.3v9.2h13.5v3.5H92.9V318.8z"/>
			<path class="st5" d="M123.3,318.8h5l9.8,27.5h-4.6l-4.9-14.9c-1-3.1-1.8-6-2.8-8.9h-0.2c-0.9,3.1-1.8,6-2.8,8.9l-5,14.9h-4.4
				L123.3,318.8z M118.9,335.2h13.8v3.3h-13.8V335.2z"/>
			<path class="st5" d="M142.9,318.8h9.5c6.1,0,10.6,2,10.6,8.1c0,5.5-4.4,8.4-10.5,8.4h-5.2v11h-4.4V318.8z M152,332
				c4.5,0,6.8-1.8,6.8-5c0-3.4-2.4-4.8-6.8-4.8h-4.5v9.7H152z M151.8,334l3.9-1.1l8.4,13.4h-4.8L151.8,334z"/>
			<path class="st5" d="M175.3,322.4h-8.7v-3.6h21.8v3.6h-8.7v23.8h-4.4L175.3,322.4z"/>
			<path class="st5" d="M194.7,318.8h4.4v11.2h13.1v-11.2h4.4v27.5h-4.4v-12.5h-13.1v12.5h-4.4V318.8z"/>
			<path class="st5" d="M233.6,337.2c0-10.4,15.9-12,15.9-19.4c0-2-0.9-3.9-3.3-3.9c-2.7,0-4.3,2.2-4.3,5.1
				c0,6.5,7.2,15.1,13.8,20.1c2.3,1.8,4.9,3.2,7.6,4.1l-1.1,3.6c-3.3-1-6.4-2.7-9.1-4.9c-7.6-6-14.9-15.6-14.9-23
				c-0.2-4.3,3.1-8.1,7.4-8.3c0.2,0,0.3,0,0.6,0c4.3,0,6.8,2.9,6.8,6.8c0,8.9-15.2,11.6-15.2,19.3c0,3.9,3.1,6.4,6.8,6.4
				c2.9,0,5.6-1.7,8-4.1c3-3.4,5.2-7.4,6.3-11.8h4.1c-1.4,5.1-3.9,9.8-7.3,13.9c-2.9,3.4-7.1,5.5-11.5,5.5
				C238,346.9,233.6,342.9,233.6,337.2z"/>
			<path class="st5" d="M277.1,341.8l2.7-3.1c2.5,2.7,6,4.2,9.6,4.3c4.5,0,7.3-2.3,7.3-5.6c0-3.5-2.5-4.6-5.9-6.1l-5-2.2
				c-3.2-1.3-7.1-3.9-7.1-8.9c0-5.3,4.6-9.3,10.9-9.3c3.9,0,7.5,1.5,10.3,4.3l-2.3,2.9c-2.1-2.1-5-3.3-7.8-3.3c-3.9,0-6.5,2-6.5,5.1
				c0,3.3,3.1,4.6,5.7,5.7l5,2.2c4,1.8,7.2,4.1,7.2,9.3c0,5.5-4.5,9.9-11.8,9.9C284.7,346.9,280.3,345.1,277.1,341.8z"/>
			<path class="st5" d="M313.5,322.4h-8.7v-3.6h21.9v3.6h-8.7v23.8h-4.4V322.4z"/>
			<path class="st5" d="M329.4,332.5c0-8.9,5.3-14.3,12.9-14.3s12.8,5.4,12.8,14.3s-5.3,14.5-12.8,14.5
				C334.8,346.9,329.4,341.4,329.4,332.5z M350.6,332.5c0-6.6-3.3-10.5-8.3-10.5c-5,0-8.3,4-8.3,10.5s3.2,10.7,8.3,10.7
				C347.4,343.2,350.6,339,350.6,332.5L350.6,332.5z"/>
			<path class="st5" d="M362.7,318.8h4.5l10.1,16.2l3.2,5.9h0.2c-0.2-2.8-0.6-6.3-0.6-9.3v-12.8h4.1v27.5h-4.4L369.6,330l-3.2-6
				h-0.2c0.2,2.9,0.6,6.2,0.6,9.2v13h-4.1V318.8z"/>
			<path class="st5" d="M393.7,318.8h17.3v3.5h-12.9v8h10.9v3.3h-10.9v9.2h13.4v3.5h-17.9v-27.5H393.7z"/>
			
				<image style="display:none;overflow:visible;opacity:0.7;enable-background:new    ;" width="213" height="230" xlink:href="46F70ECF3677EDB4.png"  transform="matrix(0.234 0 0 0.234 282.0471 128.6167)">
			</image>
			<path class="st6" d="M294.1,191.4c0.1,0,0.2,0,0.3,0c18.3-2.5,28.6-10,29.1-20.9c0.3-7.6-2.8-10.1-3.8-11
				c-2.7-2.2-6.7-3.3-12.1-3.3c-2.4,0-4.9,0.2-7.3,0.6c-1.1,0.2-1.9,1.1-2,2.1c-1.2,11.5-3.3,21-6.5,29.1c-0.5,1.2,0.1,2.6,1.4,3.1
				C293.5,191.3,293.8,191.4,294.1,191.4L294.1,191.4z M302.9,161.4c1.6-0.2,3.1-0.3,4.7-0.3c4.1,0,7.3,0.8,9,2.2
				c0.5,0.4,2.2,1.8,2,7c-0.4,9.7-11.9,13.9-20.9,15.6C300.3,177.9,302.1,169.7,302.9,161.4L302.9,161.4z"/>
			<path class="st3" d="M162.6,144.1c-5.5,36.2,4,64,37.4,78h65.1c9.9-4.7,18.9-11.1,26.6-18.8c6.1-17.8,9.4-37.8,10.8-59.2H162.6z"
				/>
			<path class="st7" d="M61.2,222.1H200c0,0-32-10.6-35.4-36.3c-3.4-25.7-2-41.8-2-41.8h139.9l-0.4,6c1.5,0.4,20.5-0.1,16.6,0
				c-3.1,0.1,8.5,2.2,10.2,11c1.2,6.5,0.3,13.3-2.6,19.2c-1.7,3.4-6.3,7.8-12.2,11s-12.7,3.3-16.4,3.7l-3.6,0.4l-2.5,7.9
				c0,0-10.9,18.8-26.6,18.8h128.9"/>
			<path class="st6" d="M198.2,129.1c-0.8,0-1.5-0.7-1.5-1.5c0-0.6,0.3-1.1,0.8-1.3c2.6-1.5,4.5-4,5.4-6.9c1.1-4,0-8.6-3.3-13.9
				c-8.2-11.2-10.8-21.3-7.7-30.2c5.7-15.9,27.5-21.6,28.4-21.9c0.7-0.2,1.4,0.2,1.7,0.8c0.3,0.6,0.1,1.4-0.4,1.9
				c-14.5,11-16,22.9-5.4,42.4c4.3,8,5.1,14.7,2.2,20C213.3,127.9,198.9,129,198.2,129.1L198.2,129.1z M213.9,59
				c-6.6,2.9-15.9,8.5-19.1,17.3c-2.8,7.9-0.4,17.1,7.3,27.4c0,0,0,0.1,0.1,0.1c3.8,6,5,11.6,3.6,16.4c-0.5,1.8-1.3,3.4-2.5,4.9
				c4.2-1.1,9.9-3.4,12.5-8.1c2.4-4.3,1.6-10.1-2.2-17.1C204,82.2,203.9,69.8,213.9,59z"/>
			<path class="st6" d="M229.5,128c-1.1,0-1.9-0.9-1.9-1.9c0-0.6,0.3-1.2,0.8-1.5c9.3-6.5,10.5-13.6,4.3-26.1
				c-2.7-5.6-3-10.2-0.8-13.9c3.8-6.3,13.6-6.7,14.1-6.7c1,0,1.9,0.8,2,1.8c0,0.8-0.4,1.5-1.1,1.8c-1.5,0.8-2.6,2.2-3.2,3.8
				c-0.7,2.3-0.1,5,1.7,8.3c5.2,7.7,6.6,14.6,4.2,20.6c-4.3,10.6-19,13.8-19.6,13.9C229.8,128,229.6,128,229.5,128z M240.6,82.6
				c-2.2,0.6-4.1,2-5.4,3.9c-1.5,2.5-1.1,5.9,1,10.2c5,10.3,5.5,18.1,1.2,24.4c3.5-1.8,7.1-4.6,8.7-8.5c1.9-4.7,0.6-10.5-3.9-17.1
				l-0.1-0.1c-2.4-4.2-3.1-8.1-2-11.4C240.2,83.5,240.4,83.1,240.6,82.6z"/>
		</g>
	</g>
</g>
</svg>
