<?xml version="1.0" encoding="utf-8"?>
<!-- Generator: Adobe Illustrator 23.0.1, SVG Export Plug-In . SVG Version: 6.00 Build 0)  -->
<svg version="1.1" id="Layer_1" xmlns="http://www.w3.org/2000/svg" xmlns:xlink="http://www.w3.org/1999/xlink" x="0px" y="0px"
	 viewBox="0 0 354.4 371.6" style="enable-background:new 0 0 354.4 371.6;" xml:space="preserve">
<style type="text/css">
	.st0{fill:none;stroke:#B8844D;stroke-width:2;stroke-miterlimit:10;}
	.st1{fill:none;stroke:#CF9F6D;stroke-width:3;stroke-miterlimit:10;}
	.st2{fill:#FFFFFF;stroke:#CF9F6D;stroke-width:2;stroke-miterlimit:10;}
	.st3{fill:#F8B62D;}
	.st4{fill:#FFFFFF;}
	.st5{fill:#E26D1E;stroke:#E26D1E;stroke-miterlimit:10;}
	.st6{fill:#D68D4A;}
	.st7{fill:none;stroke:#D68D4A;stroke-width:5;stroke-miterlimit:10;}
</style>
<title>Asset 1</title>
<g>
	<g>
		<g id="cup">
			<path class="st0" d="M145.6,250.2C86.3,246.3,26.2,239,9.8,241.4c-13.7,2-13.7,74.9,16,74.9s149.5-27.6,149.5-27.6
				S181,250.2,145.6,250.2z"/>
			<path class="st1" d="M195,236.8c46.2,16.2,77.4,31.2,80.9,40.4s-6.9,53.1-49.7,55.5c-6.9-1.2-57.8-49.7-57.8-49.7
				S153.4,239.1,195,236.8z"/>
			<path class="st2" d="M106,278.4c-20.8,3.5-4.6,58.9,17.3,57.8s69.3-50.3,69.3-50.3l-24.3-24.8C168.4,261.1,126.8,269.2,106,278.4
				z"/>
			<path class="st1" d="M221.5,246.1c35.8-4.6,117.1-2.4,125.4,0.6c12.7,4.6,4,59.5-13.3,61.8c-29,3.9-100.5-26.6-100.5-26.6
				L221.5,246.1z"/>
			<path class="st3" d="M61.9,131.9c-9.2-17.9-21.4-41-1.7-53.2C72.9,84,81.6,118.1,61.9,131.9z"/>
			<path class="st3" d="M117,63c-22-22-30.1-45.7-5.8-63C130.2,13.9,134.3,42.8,117,63z"/>
			<path class="st3" d="M225.7,133.4c-13.9-9.2-16.2-29.5,0-36.4C239.5,101.6,240.7,119.5,225.7,133.4z"/>
			<path class="st3" d="M262.2,71.9c-14.4-15-11.1-34.7,1-40.4C276.5,41.3,279.5,63.8,262.2,71.9z"/>
			<path class="st4" d="M110.2,18.8c-6.9,8.1-5.2,25.4,3.5,25.4S117.7,22.8,110.2,18.8z"/>
			<path class="st4" d="M61.1,90.9c-4.6,6.3-4.1,19.6,0.6,21.4S66.8,96.1,61.1,90.9z"/>
			<path class="st4" d="M264.5,41.9c-9.2,8.1-2.9,20.2,0.6,19.6S267.4,45.9,264.5,41.9z"/>
			<path class="st4" d="M224.8,102.6c-4.5,6.3-5.4,22.6,4.1,19C237,115.7,226.5,112.4,224.8,102.6z"/>
			<path class="st3" d="M24.4,316.1c26.9-18.2-4.3-73.1-17.9-72.5C-3.4,255.8-1.2,314,24.4,316.1z"/>
			<path class="st3" d="M136.6,314.8c-3.6-24.1-16.5-38.5-27.5-37.7c-1.1,0.4-8,2.8-10.5,6.7c-1,1.9-1.6,4-1.9,6.1l-0.1,9.3
				c1.8,16.9,13.2,37.7,26.7,37c3.7-0.4,7.3-1.5,10.7-3.2C136.6,328.5,137.8,322.5,136.6,314.8z"/>
			<path class="st3" d="M274.2,294.5c-0.8-13.3-9-23.1-24.4-23.1c-25.2,0-42.2,58-22.2,61.1C255.5,330.4,269.2,310.3,274.2,294.5z"
				/>
			<path class="st3" d="M346.9,246.6c-0.2-0.1-0.4-0.1-0.5-0.1c-10.5,9.6-29.5,45.6-20.9,62.2c2.7,0.1,5.4,0.1,8.1-0.3
				C350.9,306.1,359.6,251.2,346.9,246.6z"/>
			<path class="st5" d="M29.3,338.9h4v13.2h14.7v-13.2h4v31.5h-4v-14.8H33.3v14.8h-4L29.3,338.9z"/>
			<path class="st5" d="M60.6,345.5h15.7v3.2H64.6v7.2h9.9v3h-9.9v8.3h12.2v3.2H60.6V345.5z"/>
			<path class="st5" d="M88.1,345.5h4.5l8.9,24.9h-4.2l-4.4-13.5c-0.9-2.8-1.6-5.4-2.5-8.1h-0.2c-0.8,2.8-1.6,5.4-2.5,8.1l-4.5,13.5
				h-4L88.1,345.5z M84.1,360.4h12.5v3H84.1V360.4z"/>
			<path class="st5" d="M105.9,345.5h8.6c5.5,0,9.6,1.8,9.6,7.3c0,5-4,7.6-9.5,7.6h-4.7v10h-4L105.9,345.5z M114.1,357.5
				c4.1,0,6.2-1.6,6.2-4.5c0-3.1-2.2-4.3-6.2-4.3h-4.1v8.8L114.1,357.5z M113.9,359.3l3.5-1l7.6,12.1h-4.3L113.9,359.3z"/>
			<path class="st5" d="M135.2,348.8h-7.9v-3.3H147v3.3h-7.9v21.5h-4L135.2,348.8z"/>
			<path class="st5" d="M152.7,345.5h4v10.1h11.9v-10.1h4v24.9h-4v-11.3h-11.9v11.3h-4L152.7,345.5z"/>
			<path class="st5" d="M188,362.2c0-9.4,14.4-10.9,14.4-17.6c0-1.8-0.8-3.5-3-3.5c-2.4,0-3.9,2-3.9,4.6c0,5.9,6.5,13.7,12.5,18.2
				c2.1,1.6,4.4,2.9,6.9,3.7l-1,3.3c-3-0.9-5.8-2.4-8.2-4.4c-6.9-5.4-13.5-14.1-13.5-20.8c-0.2-3.9,2.8-7.3,6.7-7.5
				c0.2,0,0.3,0,0.5,0c3.9,0,6.2,2.6,6.2,6.2c0,8.1-13.8,10.5-13.8,17.5c0,3.5,2.8,5.8,6.2,5.8c2.6,0,5.1-1.5,7.2-3.7
				c2.7-3.1,4.7-6.7,5.7-10.7h3.7c-1.3,4.6-3.5,8.9-6.6,12.6c-2.6,3.1-6.4,5-10.4,5C191.9,371,188,367.3,188,362.2z"/>
			<path class="st5" d="M227.3,366.3l2.4-2.8c2.3,2.4,5.4,3.8,8.7,3.9c4.1,0,6.6-2.1,6.6-5.1c0-3.2-2.3-4.2-5.3-5.5l-4.5-2
				c-2.9-1.2-6.4-3.5-6.4-8.1c0-4.8,4.2-8.4,9.9-8.4c3.5,0,6.8,1.4,9.3,3.9l-2.1,2.6c-1.9-1.9-4.5-3-7.1-3c-3.5,0-5.9,1.8-5.9,4.6
				c0,3,2.8,4.2,5.2,5.2l4.5,2c3.6,1.6,6.5,3.7,6.5,8.4c0,5-4.1,9-10.7,9C234.2,371,230.2,369.3,227.3,366.3z"/>
			<path class="st5" d="M260.3,348.8h-7.9v-3.3h19.8v3.3h-7.9v21.5h-4L260.3,348.8z"/>
			<path class="st5" d="M274.7,357.9c0-8.1,4.8-12.9,11.7-12.9s11.6,4.9,11.6,12.9s-4.8,13.1-11.6,13.1S274.7,366,274.7,357.9z
				 M293.9,357.9c0-6-3-9.5-7.5-9.5s-7.5,3.6-7.5,9.5s2.9,9.7,7.5,9.7S293.9,363.8,293.9,357.9L293.9,357.9z"/>
			<path class="st5" d="M304.8,345.5h4.1l9.1,14.7l2.9,5.3h0.2c-0.2-2.5-0.5-5.7-0.5-8.4v-11.6h3.7v24.9h-4l-9.2-14.7l-2.9-5.4H308
				c0.2,2.6,0.5,5.6,0.5,8.3v11.8h-3.7L304.8,345.5z"/>
			<path class="st5" d="M332.9,345.5h15.7v3.2h-11.7v7.2h9.9v3h-9.9v8.3h12.1v3.2h-16.2V345.5z"/>
			
				<image style="overflow:visible;opacity:0.7;enable-background:new    ;" width="210" height="224" xlink:href="46F70ECF3677EDB4.png"  transform="matrix(0.2389 0 0 0.2389 223.31 159.478)">
			</image>
			<path class="st6" d="M236.8,200.9c0.1,0,0.2,0,0.3,0c18.3-2.5,28.6-10,29.1-20.9c0.3-7.6-2.8-10.1-3.8-11
				c-2.7-2.2-6.7-3.3-12.1-3.3c-2.4,0-4.9,0.2-7.3,0.6c-1.1,0.2-1.9,1.1-2,2.1c-1.2,11.5-3.3,21-6.5,29.1c-0.5,1.2,0.1,2.6,1.4,3.1
				C236.2,200.8,236.5,200.9,236.8,200.9L236.8,200.9z M245.6,170.9c1.6-0.2,3.1-0.3,4.7-0.3c4.1,0,7.3,0.8,9,2.2
				c0.5,0.4,2.2,1.8,2,7c-0.4,9.7-11.9,13.9-20.9,15.6C243,187.4,244.8,179.2,245.6,170.9L245.6,170.9z"/>
			<path class="st3" d="M105.3,153.6c-5.5,36.2,4,64,37.4,78h65.1c9.9-4.7,18.9-11.1,26.6-18.8c6.1-17.8,9.4-37.8,10.8-59.2
				L105.3,153.6z"/>
			<path class="st7" d="M3.9,231.6h138.8c0,0-32-10.6-35.4-36.3s-2-41.8-2-41.8h139.9l-0.4,6c1.5,0.4,20.5-0.1,16.6,0
				c-3.1,0.1,8.5,2.2,10.2,11c1.2,6.5,0.3,13.3-2.6,19.2c-1.7,3.4-6.3,7.8-12.2,11s-12.7,3.3-16.4,3.7l-3.6,0.4l-2.5,7.9
				c0,0-10.9,18.8-26.6,18.8h128.9"/>
			<path class="st6" d="M140.9,138.6c-0.8,0-1.5-0.7-1.5-1.5c0-0.6,0.3-1.1,0.8-1.3c2.6-1.5,4.5-4,5.4-6.9c1.1-4,0-8.6-3.3-13.9
				c-8.2-11.2-10.8-21.3-7.7-30.2c5.7-15.9,27.5-21.6,28.4-21.9c0.7-0.2,1.4,0.2,1.7,0.8c0.3,0.6,0.1,1.4-0.4,1.9
				c-14.5,11-16,22.9-5.4,42.4c4.3,8,5.1,14.7,2.2,20c-5.1,9.4-19.5,10.5-20.1,10.6L140.9,138.6z M156.6,68.5
				c-6.6,2.9-15.9,8.5-19.1,17.3c-2.8,7.9-0.4,17.1,7.3,27.4c0,0,0,0.1,0.1,0.1c3.8,6,5,11.6,3.6,16.4c-0.5,1.8-1.3,3.4-2.5,4.9
				c4.2-1.1,9.9-3.4,12.5-8.1c2.4-4.3,1.6-10.1-2.2-17.1C146.7,91.7,146.6,79.3,156.6,68.5z"/>
			<path class="st6" d="M172.2,137.5c-1.1,0-1.9-0.9-1.9-1.9c0-0.6,0.3-1.2,0.8-1.5c9.3-6.5,10.5-13.6,4.3-26.1
				c-2.7-5.6-3-10.2-0.8-13.9c3.8-6.3,13.6-6.7,14.1-6.7c1,0,1.9,0.8,2,1.8c0,0.8-0.4,1.5-1.1,1.8c-1.5,0.8-2.6,2.2-3.2,3.8
				c-0.7,2.3-0.1,5,1.7,8.3c5.2,7.7,6.6,14.6,4.2,20.6c-4.3,10.6-19,13.8-19.6,13.9C172.5,137.5,172.3,137.5,172.2,137.5z
				 M183.3,92.1c-2.2,0.6-4.1,2-5.4,3.9c-1.5,2.5-1.1,5.9,1,10.2c5,10.3,5.5,18.1,1.2,24.4c3.5-1.8,7.1-4.6,8.7-8.5
				c1.9-4.7,0.6-10.5-3.9-17.1l-0.1-0.1c-2.4-4.2-3.1-8.1-2-11.4C182.9,93,183.1,92.6,183.3,92.1z"/>
		</g>
	</g>
</g>
</svg>
