<svg xmlns="http://www.w3.org/2000/svg" viewBox="0 0 56.94 58.64"><defs><style>.cls-1{opacity:0.9;}.cls-2{fill:#d3f7f0;}</style></defs><title>Asset 5</title><g id="Layer_2" data-name="Layer 2"><g id="Layer_1-2" data-name="Layer 1"><g class="cls-1"><path class="cls-2" d="M8.56,46.24C5.06,47.54,3,49.2,3,51c0,4.21,11.42,7.63,25.5,7.63S54,55.22,54,51c0-1.81-2.09-3.47-5.59-4.77a28.77,28.77,0,0,1-3.81,3A19.29,19.29,0,0,1,49.27,51c-2.53,1.53-9.75,3.63-20.8,3.63S10.2,52.54,7.67,51a19.29,19.29,0,0,1,4.7-1.81A28.77,28.77,0,0,1,8.56,46.24Z"/><path class="cls-2" d="M0,24.53A28.4,28.4,0,0,0,9.62,45.86a28,28,0,0,0,4.07,3,28.51,28.51,0,0,0,29.56,0,28,28,0,0,0,4.07-3,28.4,28.4,0,0,0,9.62-21.33Z"/><path class="cls-2" d="M14.46.48c-2.67,2-3.7,4.69-2.4,7.87.72,1.76,4.51,6,2.89,7.78-2.17,2.37,1.36,5.91,3.54,3.53s2.34-5.17,1-8C18.85,10.25,15.28,6.08,17,4.8,19.53,2.9,17-1.45,14.46.48Z"/><path class="cls-2" d="M26.46.48c-2.67,2-3.7,4.69-2.4,7.87.72,1.76,4.51,6,2.89,7.78-2.17,2.37,1.36,5.91,3.54,3.53s2.34-5.17,1-8C30.85,10.25,27.28,6.08,29,4.8,31.53,2.9,29-1.45,26.46.48Z"/><path class="cls-2" d="M38.46.48c-2.67,2-3.7,4.69-2.4,7.87.72,1.76,4.51,6,2.89,7.78-2.17,2.37,1.36,5.91,3.54,3.53s2.34-5.17,1-8C42.85,10.25,39.28,6.08,41,4.8,43.53,2.9,41-1.45,38.46.48Z"/></g></g></g></svg>