<?xml version="1.0" encoding="utf-8"?>
<!-- Generator: Adobe Illustrator 23.0.1, SVG Export Plug-In . SVG Version: 6.00 Build 0)  -->
<svg version="1.1" id="Layer_1" xmlns="http://www.w3.org/2000/svg" xmlns:xlink="http://www.w3.org/1999/xlink" x="0px" y="0px"
	 viewBox="0 0 323.3 416.6" style="enable-background:new 0 0 323.3 416.6;" xml:space="preserve">
<style type="text/css">
	.st0{fill:#DFE8CF;}
	.st1{fill:#D1C495;}
	.st2{fill:url(#SVGID_1_);}
	.st3{fill:url(#SVGID_2_);}
	.st4{fill:url(#SVGID_3_);}
	.st5{fill:#75A128;}
	.st6{fill:#729B2F;}
	.st7{fill:#6E9630;}
	.st8{fill:#FFFFFF;}
	.st9{fill:#6B9131;}
	.st10{fill:url(#SVGID_4_);}
	.st11{fill:url(#SVGID_5_);}
	.st12{fill:#85542E;}
</style>
<title>Asset 1</title>
<g>
	<g>
		<g id="top_layer">
			<path class="st0" d="M8.2,333.2l-1.2,1.4c0.6,3.9,2,8.6,4,11c11.3,13.2,57.4,22.9,118,22.9c4.8,0,9.5-0.1,14.1-0.3
				c1.5-3.7,2.3-7,1.9-7.9C144.2,358.4,30.9,355.2,8.2,333.2z"/>
			<path class="st0" d="M309.9,347.4c1.6-1.8,2.7-4,3.2-6.4l-0.5-0.5c-16.5,18-170.8,20-171.8,22.2c-0.4,1.7-0.6,3.4-0.4,5.1
				c16.2,2.5,34.8,3.1,55.1,3.1C254.3,370.9,300.3,357.4,309.9,347.4z"/>
			<path class="st1" d="M159.3,353.5c0,0-97.9,0-136.7-28c0,0,0.3,19.9,9.8,29.8c11.4,11.9,56.7,26.2,126.9,26.2
				s115.5-14.3,126.9-26.2c9.5-9.9,9.8-29.8,9.8-29.8C257.2,353.5,159.3,353.5,159.3,353.5z"/>
			
				<linearGradient id="SVGID_1_" gradientUnits="userSpaceOnUse" x1="164.6497" y1="16.93" x2="164.6497" y2="75.54" gradientTransform="matrix(1 0 0 -1 0 416)">
				<stop  offset="0" style="stop-color:#BD6B20"/>
				<stop  offset="1.000000e-02" style="stop-color:#BE6C21"/>
				<stop  offset="0.67" style="stop-color:#E39A49"/>
				<stop  offset="1" style="stop-color:#F1AC58"/>
			</linearGradient>
			<path class="st2" d="M164.6,369.8c0,0-102.5,0-143.1-29.3c0,0,0.3,20.8,10.2,31.2c12,12.5,59.3,27.5,132.8,27.4
				s120.9-15,132.8-27.4c9.9-10.4,10.2-31.2,10.2-31.2C267.2,369.8,164.6,369.8,164.6,369.8z"/>
			
				<linearGradient id="SVGID_2_" gradientUnits="userSpaceOnUse" x1="173.9868" y1="161.1142" x2="190.3868" y2="234.5142" gradientTransform="matrix(0.9739 -0.2268 -0.2268 -0.9739 88.0348 448.9011)">
				<stop  offset="0" style="stop-color:#9E1F24"/>
				<stop  offset="0.91" style="stop-color:#DC4232"/>
				<stop  offset="1" style="stop-color:#E24633"/>
			</linearGradient>
			<path class="st3" d="M298,182c6.2,26.7-23.4,56.5-66.3,66.5c-42.8,10-82.6-3.6-88.9-30.4s23.4-56.5,66.3-66.5
				S291.8,155.3,298,182z"/>
			
				<linearGradient id="SVGID_3_" gradientUnits="userSpaceOnUse" x1="108.6771" y1="153.5671" x2="125.2971" y2="227.9371" gradientTransform="matrix(1 2.000000e-02 2.000000e-02 -0.9 -9.56 381.86)">
				<stop  offset="0" style="stop-color:#E24633"/>
				<stop  offset="9.000000e-02" style="stop-color:#DC4232"/>
				<stop  offset="1" style="stop-color:#9E1F24"/>
			</linearGradient>
			<path class="st4" d="M195.3,201.8c-0.6,25.1-37.1,44.6-81.7,43.6S33.4,223.3,34,198.2c0.6-25.1,37.1-44.6,81.7-43.6
				S195.9,176.8,195.3,201.8z"/>
			<g id="XMLID_1_">
				<g>
					<path class="st5" d="M75.6,248.1c0.2,0.4,0.3,0.8,0.4,1.1c0.1,0.1,0.1,0.2,0.1,0.3c-0.1,0-0.1,0-0.1,0.1
						c-0.3,0.3-0.7,0.7-1.2,1.1c-1.2,0.9-2.7,1.9-4.3,2.9c-4,2.5-7,4.1-9,4.5l-0.2-0.4c-0.1-0.2-0.2-0.4-0.3-0.5
						c-0.1-0.2-0.2-0.3-0.3-0.5c-0.5-0.8-1.1-1.6-1.7-2.4c-1.3-1.4-2.9-2.3-4.7-2.8c-1.1-0.4-2.2-0.5-3.3-0.2c-1.9,0.5-3.4,2-3.9,4
						c-0.6,1.9-0.3,4,0.7,5.7c1.1,2,2.8,3.5,4.9,4.4c2.4,1,5,1.2,7.5,0.9c-0.7,2.8-1.6,5.6-2.7,8.4c-0.2,0.6-0.5,1.1-0.7,1.6
						c-3.7,1.8-7.9,2.1-11.8,1.1c-3.8-1-7-3.4-9.1-6.7c-0.7-1.1-1.3-2.2-1.8-3.3c-1.4-4.2-1.3-8.8,0.2-13c1.1-3,2.5-5.9,4.1-8.6
						c0.5-0.9,1.1-1.7,1.8-2.5l0.9-1.1c1-1.1,2-2.1,3.2-3c1.6-1.1,3.3-1.9,5.1-2.6v-0.1c1.9-0.6,3.9-0.9,5.8-1
						c4.3-0.3,8.5,0.7,12.2,2.9c2.7,1.6,4.9,3.8,6.5,6.5C74.6,246,75.2,247,75.6,248.1z"/>
					<path class="st5" d="M55.7,278.2c0.1-0.1,0.2-0.3,0.3-0.4c-3.6,1.5-7.6,1.7-11.4,0.7c-2.9-0.9-5.5-2.5-7.6-4.6
						c1.8,2.7,4.3,4.7,7.2,5.9c3.3,1.2,7,1.2,10.3-0.2C54.9,279.6,55.2,279.1,55.7,278.2z M76.1,249.5c0-0.1,0-0.2-0.1-0.3
						c-0.1-0.3-0.3-0.7-0.4-1.1c-0.5-1.1-1-2.1-1.7-3.1c-1.6-2.7-3.8-4.9-6.5-6.5c-3.7-2.1-8-3.2-12.2-2.9c-2,0.1-3.9,0.4-5.8,1v0.1
						c-1.8,0.6-3.5,1.5-5.1,2.6c-1.2,0.9-2.2,1.9-3.2,3l-0.9,1.1c-0.7,0.8-1.2,1.6-1.8,2.5c-1.7,2.7-3.1,5.6-4.1,8.6
						c-1.5,4.2-1.5,8.8-0.2,13c0.5,1.2,1.1,2.3,1.8,3.3c2.1,3.3,5.3,5.7,9.1,6.7c3.9,1.1,8.1,0.7,11.8-1.1c0.2-0.5,0.5-1.1,0.7-1.6
						c1.1-2.7,2-5.5,2.7-8.4c-2.5,0.4-5.1,0.1-7.5-0.9c-2.1-0.9-3.8-2.4-4.9-4.4c-1-1.7-1.3-3.8-0.7-5.7c0.5-1.9,2-3.4,3.9-4
						c1.1-0.3,2.2-0.2,3.3,0.2c1.8,0.5,3.4,1.5,4.7,2.8c0.6,0.7,1.2,1.5,1.7,2.4c0.1,0.2,0.2,0.4,0.3,0.5c0.1,0.2,0.2,0.3,0.3,0.5
						l0.2,0.4c2-0.5,5-2,9-4.5c1.7-1.1,3.1-2,4.3-2.9c0.5-0.4,0.9-0.8,1.2-1.1C76,249.6,76.1,249.6,76.1,249.5z M75.2,243.7
						c1.7,2.6,2.6,4.6,2.6,6c0,0.4-0.1,0.7-0.3,1c-0.2,0.2-0.3,0.3-0.5,0.5c-0.3,0.3-0.8,0.7-1.4,1.2c-1.2,0.9-2.7,1.9-4.4,3.1
						c-4.4,2.7-7.6,4.3-9.8,4.7c-0.2,0.2-0.6,0.2-0.8-0.1c0,0-0.1-0.1-0.1-0.1c-0.2-0.3-0.4-0.6-0.6-1c-0.1-0.1-0.2-0.3-0.3-0.5
						c-0.1-0.2-0.2-0.3-0.3-0.5c-0.4-0.7-0.9-1.4-1.5-2c-1-1.2-2.4-2-3.9-2.5c-0.8-0.3-1.7-0.4-2.5-0.2c-1.3,0.4-2.4,1.4-2.9,2.7
						c-0.4,1.4-0.2,2.8,0.6,4c0.9,1.6,2.3,2.9,4,3.6c2.5,1,5.2,1.2,7.8,0.7c0.2-0.1,0.4-0.1,0.7-0.1c0.5,0.2,0.7,0.6,0.5,1.2
						c-0.9,3.5-2,6.9-3.2,10.2c-1.4,3.6-2.7,5.5-3.8,6c-3.6,1.5-7.6,1.5-11.2,0.2c-3.3-1.4-6.2-3.8-8.1-6.8c-2.1-3.1-3.5-6.7-4-10.4
						c-0.6-3.6-0.3-7.3,0.9-10.7c0.4-1.4,1-2.7,1.6-4c0.8-1.8,1.8-3.6,2.8-5.3c1.8-2.9,4.1-5.5,6.9-7.4c3.3-2.2,7.2-3.4,11.2-3.4
						c4.5-0.3,9.1,0.7,13,3C71,238.4,73.4,240.8,75.2,243.7z"/>
				</g>
				<g>
				</g>
			</g>
			<g id="XMLID_2_">
				<g>
					<path class="st5" d="M104.1,290.5c0.4,2.6,0.2,5.2-0.8,7.6h-0.4c-0.6-0.1-1.3-0.2-2.4-0.4c-1.9-0.4-4.3-0.9-7-1.5
						c-2.8-0.6-5.2-1.2-7-1.6c-0.7-0.1-1.3-0.3-1.9-0.5c1.7-1.8,3-4,3.9-6.4c0.5-1.3,0.8-2.7,0.8-4.1c0.1-1.3-0.5-2.5-1.5-3.3
						c0,0-0.1-0.1-0.1-0.1c-0.3-0.2-0.6-0.1-0.8,0.2c-0.1,0.2-0.2,0.4-0.1,0.6c0,0-0.1,0.2-0.2,0.4c-0.1,0.2-0.2,0.5-0.3,0.8
						c-0.3,0.9-0.6,1.5-0.8,2c-0.6,1.5-1.1,2.5-1.4,3.1c0,0.1-0.1,0.1-0.1,0.1c-0.1,0.2-0.2,0.4-0.3,0.5c-0.1-0.1-0.2-0.1-0.4-0.2
						l-0.8-0.4c-0.9-0.3-2.1-0.8-3.7-1.4l-2.3-0.9c1.9-5.7,3.6-10.6,5.1-14.7c1.8-4.9,3.9-9.7,6.2-14.3c0,0,0-0.1,0-0.1
						c1.9-0.3,3.8-0.3,5.7,0.1c2.2,0.3,4.4,0.9,6.6,1.7c2.9,1.1,5.6,2.7,8,4.8c2,1.7,3.6,3.8,4.4,6.3c0.9,2.5,0.4,4.5-1.6,5.8
						c-1.6,1.1-4,1.8-7.3,2.1c-1.4,0.1-2.7,0.2-4.1,0.2c-0.8,0-1.7,0-2.9,0c-0.1,0-0.2,0-0.3,0.1c-0.2,0.1-0.4,0.2-0.4,0.4
						c0,0.1,0,0.3,0,0.4l0.1,0.2l0.4,0.3c0.2,0.2,0.4,0.4,0.6,0.6c0.4,0.3,0.6,0.6,0.7,0.7c1.4,1.4,2.7,2.9,3.8,4.6
						C102.7,286,103.6,288.2,104.1,290.5z M95.9,266.5c0.7-0.5,1.1-1.3,1-2.2c0-0.8-0.3-1.5-0.8-2.1c-0.6-0.7-1.6-0.8-2.3-0.2
						c0,0-0.1,0-0.1,0.1h-0.1c-0.5,0.1-1,0.4-1.4,0.7c-0.4,0.3-0.8,0.8-1.1,1.2c-0.4,0.5-0.4,1.2-0.2,1.8c0.4,0.6,1,1,1.7,1.1
						C93.8,267.3,95,267.1,95.9,266.5z"/>
					<path class="st5" d="M94,263.4c-0.3,0.1-0.6,0.3-0.9,0.5c-0.3,0.2-0.6,0.5-0.8,0.8c-0.1,0.2-0.2,0.4-0.1,0.6
						c0.1,0.2,0.3,0.3,0.8,0.4c0.7,0.3,1.5,0.2,2.1-0.2c0.3-0.3,0.5-0.7,0.5-1.1c0.1-0.4-0.1-0.9-0.4-1.2c-0.2-0.1-0.5-0.1-0.7,0
						l-0.3,0.1L94,263.4z M95.9,266.5c-0.9,0.6-2.1,0.8-3.2,0.5c-0.7-0.1-1.4-0.5-1.7-1.1c-0.3-0.6-0.2-1.3,0.2-1.8
						c0.3-0.5,0.7-0.9,1.1-1.2c0.4-0.3,0.9-0.6,1.4-0.7h0.1c0,0,0.1-0.1,0.1-0.1c0.7-0.5,1.7-0.4,2.3,0.2c0.5,0.6,0.8,1.3,0.8,2.1
						C97,265.2,96.6,266,95.9,266.5z"/>
					<path class="st5" d="M85.6,256.5c-1,2.7-2.7,6.9-5,12.5L75,282.2l-0.8,1.9v0.1c0.3,0.1,0.6,0.2,1,0.3l0.5,0.2
						c1.9-5.7,3.6-10.6,5.1-14.6c1.8-4.8,3.8-9.5,6-14.1C86.4,256.2,86,256.4,85.6,256.5z M106.9,278.1c1.4-0.4,2.7-1,3.8-1.9
						c-2.2,1.1-4.7,1.7-7.1,1.8c-1.3,0.1-2.7,0.2-4.2,0.2c-0.5,0-0.9,0-1.4,0c0.2,0.2,0.3,0.3,0.5,0.5c0,0.1,0,0.1,0.1,0.2l0,0
						C101.4,279.1,104.2,278.9,106.9,278.1z M110.8,274.6c2-1.3,2.5-3.3,1.6-5.8c-0.9-2.5-2.4-4.6-4.4-6.3c-2.4-2-5.1-3.6-8-4.8
						c-2.1-0.8-4.3-1.4-6.6-1.7c-1.9-0.3-3.8-0.3-5.7-0.1c0,0,0,0.1,0,0.1c-2.3,4.7-4.4,9.4-6.2,14.3c-1.5,4.1-3.3,9-5.1,14.7
						l2.3,0.9c1.6,0.6,2.9,1.1,3.7,1.4l0.8,0.4c0.1,0,0.3,0.1,0.4,0.2c0.1-0.2,0.2-0.4,0.3-0.5c0,0,0.1-0.1,0.1-0.1
						c0.3-0.6,0.8-1.6,1.4-3.1c0.2-0.5,0.5-1.1,0.8-2c0.1-0.2,0.2-0.5,0.3-0.8c0.1-0.2,0.2-0.4,0.2-0.4c0-0.2,0-0.4,0.1-0.6
						c0.2-0.3,0.5-0.4,0.8-0.2c0,0,0.1,0.1,0.1,0.1c1,0.8,1.6,2,1.5,3.3c0,1.4-0.3,2.8-0.8,4.1c-0.9,2.4-2.2,4.5-3.9,6.4
						c0.6,0.2,1.3,0.4,1.9,0.5c1.8,0.5,4.2,1,7,1.6c2.7,0.6,5.1,1.1,7,1.5c1,0.2,1.8,0.4,2.4,0.4h0.4c1-2.4,1.2-5,0.8-7.6
						c-0.5-2.3-1.4-4.5-2.7-6.4c-1.1-1.7-2.4-3.2-3.8-4.6c-0.1-0.1-0.3-0.3-0.7-0.7c-0.2-0.2-0.4-0.4-0.6-0.6l-0.4-0.3l-0.1-0.2
						c0-0.1,0-0.3,0-0.4c0.1-0.2,0.2-0.4,0.4-0.4c0.1-0.1,0.2-0.1,0.3-0.1c1.1,0,2.1,0,2.9,0c1.4,0,2.8,0,4.1-0.2
						C106.8,276.4,109.2,275.7,110.8,274.6z M113.6,268.5c0.8,2.3,0.6,4.2-0.5,5.7c-1,2.3-3,3.9-6,4.8c-2.5,0.6-5.1,0.9-7.7,0.6
						c1.1,1.2,2.2,2.4,3.1,3.8c1.4,2.1,2.4,4.4,2.9,6.9c0.5,3,0.1,6-1.1,8.8c-0.1,0.3-0.4,0.5-0.7,0.4c-0.1,0-0.2,0-0.2,0
						c-0.2,0-0.5,0-0.8-0.1c-0.6-0.1-1.3-0.2-2.4-0.4c-2-0.4-4.3-0.9-7.1-1.5s-5.1-1.2-7-1.6c-1-0.2-1.8-0.4-2.3-0.6
						c-0.2-0.1-0.5-0.2-0.7-0.2c-0.1,0-0.2-0.1-0.3-0.2c-0.1-0.1-0.2-0.2-0.2-0.3c-0.2-0.3-0.1-0.6,0.2-0.8c0,0,0,0,0,0
						c0.9-0.8,1.7-1.8,2.4-2.9c0.8-1.2,1.4-2.4,1.9-3.7c0.9-2.2,1-3.9,0.5-5.1l-0.2,0.5c-0.3,0.9-0.7,1.5-0.9,2
						c-0.6,1.5-1.1,2.6-1.5,3.2c0,0,0,0.1-0.1,0.1c-0.2,0.3-0.3,0.5-0.4,0.7c-0.1,0.2-0.4,0.4-0.6,0.5c-0.2,0.1-0.5,0.1-0.8,0
						c-0.2,0-0.4-0.1-0.6-0.2c-0.2-0.1-0.5-0.2-0.8-0.3l-3.8-1.4c-1.1-0.4-2.2-0.8-3.5-1.3c-0.4-0.2-0.8-0.3-1.2-0.5l-0.3-0.1h-0.1
						c-0.2-0.1-0.3-0.2-0.3-0.4c-0.1-0.2-0.1-0.3,0-0.5v0l0.1-0.1c0-0.1,0.1-0.1,0.1-0.3c0-0.1,0.1-0.2,0.1-0.2
						c0.2-0.6,0.5-1.2,0.8-1.9c2-4.8,3.9-9.2,5.5-13.2c2.3-5.7,4-9.9,5-12.6c0-0.2,0.2-0.4,0.4-0.5c2.1-1,4.5-1.4,6.9-1.1
						c6.2,0.5,12.1,2.9,16.9,6.8C110.8,263.2,112.6,265.6,113.6,268.5z"/>
				</g>
				<g>
				</g>
			</g>
			<g id="XMLID_3_">
				<g>
					<path class="st6" d="M134.5,267.5c0.6-0.4,1.3-0.8,2.1-1c0.1,0,0.1,0,0.2,0c1.3-0.3,2.6,0.2,3.2,1.4c0.8,1.4,1.2,3,0.9,4.5
						c-0.1,1.6-0.9,3.1-2.1,4.1c-1.4,1.1-3.3,1.3-5.7,0.6c-1.2-0.2-2.1-1.2-2.3-2.3c-0.2-1.3,0-2.7,0.7-3.8
						C132.2,269.6,133.2,268.4,134.5,267.5z"/>
					<path class="st6" d="M135.1,292.5c-0.3,4.3-0.2,7.6,0.5,9.9c-0.8-0.1-1.7-0.2-2.7-0.4c-1.2-0.2-2.2-0.4-3-0.6l-1-0.3
						c-0.1,0-0.2-0.1-0.2-0.1c-0.1,0-0.1-0.1-0.1-0.2c-0.1-0.2-0.1-0.5-0.1-0.8c-0.1-0.7-0.2-1.5-0.2-2.5c-0.1-2.1,0-4.5,0.2-7
						c0.1-2.3,0.3-4.6,0.8-6.9c0.1-0.8,0.3-1.5,0.6-2.2c0.1-0.2,0.2-0.3,0.3-0.5l0.1-0.1c0.1,0,0.2-0.1,0.3-0.1
						c1.3,0,2.6,0.2,3.9,0.5c1,0.2,1.9,0.4,2.9,0.7h0C136.1,285.2,135.4,288.8,135.1,292.5z"/>
					<path class="st6" d="M136.4,288.6c0,0.1,0,0.2,0,0.3C136.4,288.9,136.4,288.7,136.4,288.6L136.4,288.6z"/>
					<path class="st6" d="M136.6,302.5c-0.8-2.2-1-5.5-0.6-9.9c0.1-1.2,0.2-2.4,0.4-3.6c-0.1,1.1-0.1,2.2,0,3.5c0,1.2,0.1,2.5,0.2,4
						c0.1,0.5,0.1,1.2,0.2,2c0,0.1,0,0.3,0,0.5l0.1,0.5c0.1,0.4,0,0.8,0.1,1s0.1,0.5,0.1,0.7c0,0.1,0,0.2,0,0.4c0,0,0,0.1,0.1,0.1
						c0,0,0,0.1,0,0.1c0.1,0.1,0.1,0.1,0.1,0.2c0,0.1,0,0.1,0.1,0.2c0,0.1,0,0.2,0,0.3C137,302.5,136.8,302.5,136.6,302.5z"/>
					<path class="st6" d="M130.3,270.3c0.8-1.5,2-2.9,3.4-3.9c1.4-1.1,3.1-1.5,4.8-1.3c0.2,0,0.4,0.1,0.5,0.3c0.9,0.4,1.6,1,2.1,1.8
						c1,1.6,1.4,3.5,1.1,5.4c-0.1,2-1.1,3.8-2.6,5c-1.8,1.4-4.1,1.6-6.9,0.8c-1.7-0.4-3-1.7-3.3-3.4
						C129.2,273.3,129.5,271.7,130.3,270.3z M130.8,274.8c0.2,1.2,1.2,2.1,2.3,2.3c2.4,0.7,4.3,0.5,5.7-0.6c1.3-1,2-2.5,2.1-4.1
						c0.2-1.6-0.1-3.2-0.9-4.5c-0.6-1.1-2-1.7-3.2-1.4c-0.1,0-0.1,0-0.2,0c-0.7,0.2-1.4,0.6-2.1,1c-1.2,0.9-2.3,2.1-3,3.4
						C130.8,272.1,130.5,273.5,130.8,274.8z"/>
					<path class="st6" d="M136,292.6c-0.4,4.4-0.1,7.7,0.6,9.9c0.2,0,0.4,0.1,0.6,0.1c0-0.1,0-0.2,0-0.3c0-0.1-0.1-0.1-0.1-0.2
						c0-0.1,0-0.1-0.1-0.2c0,0,0-0.1,0-0.1c0,0,0-0.1-0.1-0.1c0-0.1,0-0.2,0-0.4c0-0.2,0-0.5-0.1-0.7s0-0.6-0.1-1l-0.1-0.5
						c0-0.2,0-0.3,0-0.5c-0.1-0.8-0.1-1.5-0.2-2c-0.1-1.5-0.2-2.8-0.2-4c-0.1-1.3-0.1-2.4,0-3.5c0-0.1,0-0.2,0-0.3h0
						c0,0.1,0,0.2,0,0.3C136.2,290.1,136.1,291.4,136,292.6z M130.3,279.2c1.5,0,3,0.2,4.4,0.5c1.5,0.2,3,0.7,4.3,1.4
						c0.2,0.1,0.3,0.4,0.3,0.6l-0.1,0.3v0.3c0,0,0,0.1,0,0.1c-1.1,3.2-1.6,6.5-1.5,9.9c0,1.1,0.1,2.4,0.2,3.9c0.1,0.5,0.1,1.2,0.2,2
						c0,0.1,0,0.3,0,0.5s0,0.4,0.1,0.5c0,0.4,0.1,0.7,0.1,1s0.1,0.6,0.1,0.7v0c0,0.1,0,0.1,0,0.2c0,0,0.1,0.1,0.1,0.1
						c0,0,0,0.1,0,0.1c0,0.1,0,0.1,0.1,0.2c0,0.1,0,0.2,0,0.3c0,0.2,0.1,0.5,0.1,0.7c0,0.1,0,0.3,0,0.4c-0.1,0.2-0.2,0.5-0.5,0.6
						c-0.7,0.2-1.3,0.2-2,0c-1-0.1-2-0.3-3.2-0.5c-1.1-0.2-2.1-0.4-3.2-0.7c-0.7-0.1-1.4-0.4-2-0.9c-0.3-0.5-0.5-1.9-0.6-4.2
						c-0.1-2.2,0-4.6,0.1-7.1c0.1-2.4,0.4-4.7,0.8-7c0.1-0.9,0.4-1.7,0.7-2.5c0.2-0.6,0.6-1,1.1-1.3
						C129.9,279.3,130.1,279.2,130.3,279.2z M130,301.3c0.8,0.2,1.8,0.4,3,0.6c1,0.2,1.9,0.3,2.7,0.4c-0.7-2.3-0.9-5.6-0.5-9.9
						c0.2-3.7,0.9-7.3,2.2-10.7h0c-0.9-0.3-1.9-0.6-2.9-0.7c-1.3-0.3-2.6-0.4-3.9-0.5c-0.1,0.1-0.2,0.1-0.3,0.1l-0.1,0.1
						c-0.1,0.2-0.2,0.3-0.3,0.5c-0.3,0.7-0.5,1.4-0.6,2.2c-0.4,2.3-0.7,4.6-0.8,6.9c-0.2,2.5-0.2,4.9-0.2,7c0,1,0.1,1.9,0.2,2.5
						c0,0.2,0.1,0.5,0.1,0.8c0,0.1,0,0.2,0.1,0.2c0.1,0.1,0.1,0.1,0.2,0.1L130,301.3z"/>
				</g>
				<g>
				</g>
			</g>
			<g id="XMLID_4_">
				<g>
					<path class="st7" d="M175.6,290.6c1.6,1.7,2.2,4.1,1.6,6.3c-0.5,1.6-1.4,3-2.6,4.1c0.9-1.2,1.6-2.5,1.9-4c0.5-2,0.3-4-0.6-5.8
						C175.8,291,175.7,290.8,175.6,290.6z"/>
					<path class="st7" d="M170.3,282.6c-0.9-0.6-1.9-1.1-2.9-1.5c-1.7-0.7-3.6,0-4.5,1.6c-0.3,0.4-0.3,0.8-0.2,1.3
						c0.1,0.4,0.3,0.7,0.6,0.9c0.7,0.4,1.4,0.8,2.2,1c0.1,0,0.2,0,0.2,0c0.1,0,0.2,0.1,0.3,0.1l0.3,0.1h0.1c0.4,0.1,0.7,0.2,1,0.3
						c0.8,0.2,1.5,0.5,2.1,0.7c0.9,0.3,1.8,0.6,2.7,1.1c1.3,0.8,2.4,1.9,3.1,3.3c0.9,1.6,1.1,3.5,0.6,5.3c-0.4,1.7-1.3,3.3-2.5,4.6
						c-1.3,1.4-2.9,2.6-4.7,3.5c-1.5,0.6-3.1,0.9-4.7,1.1c-2.1,0.3-4.2,0.2-6.3-0.2c-2-0.4-3.1-0.9-3.5-1.5c-0.2-0.7-0.1-1.4,0.1-2
						c0.3-1.3,0.7-2.6,1.2-3.8c0.8-2,1.9-4.3,3.2-7.1c1.3,1.3,2.9,2.2,4.6,2.5c0.4,0.1,0.7,0.1,1.1,0c0.4-0.1,0.7-0.4,0.9-0.7
						c0.2-0.7-0.1-1.5-0.9-2.5c-0.7-0.7-1.4-1.3-2.3-1.7c-0.6-0.3-1.5-0.7-2.6-1.2h-0.1l-0.2-0.1c-0.8-0.3-1.6-0.6-2.3-1
						c-0.7-0.3-1.3-0.8-1.9-1.3c-1.3-1.4-2-3.2-2-5.1c0-1.7,0.3-3.4,1-5c0.8-2,2.2-3.6,4.1-4.5c1.5-0.8,3.2-1.1,4.9-1.1
						c1.1,0.1,2.2,0.3,3.2,0.6c1.8,0.5,3.5,1.4,5,2.6c0.7,0.5,1.2,1.1,1.5,1.9v0.1c0,0.1,0,0.2-0.1,0.3c-0.1,0.3-0.1,0.7-0.2,1
						c-0.3,1-0.6,1.9-0.9,2.9c-0.1,0.1-0.1,0.3-0.2,0.5C171.3,279.8,170.9,280.9,170.3,282.6z"/>
					<path class="st7" d="M177.2,296.9c0.6-2.2,0-4.6-1.6-6.3c0.1,0.2,0.2,0.4,0.3,0.6c0.9,1.8,1.2,3.9,0.6,5.8
						c-0.4,1.5-1,2.8-1.9,4C175.8,299.9,176.7,298.5,177.2,296.9z M167.1,282.5c-1.1-0.5-2.4,0-3.1,1c-0.1,0.1,0,0.3,0.2,0.5
						c0,0,0.1,0,0.1,0c0.1,0.1,0.2,0.1,0.4,0.2c0.2,0.1,0.7,0.3,1.3,0.5l0.2,0.1c0.1,0,0.2,0,0.3,0.1l0.2,0.1h0.2
						c0.3,0.1,0.7,0.2,1,0.3l2.1,0.8c1.2,0.4,2.3,0.8,3.1,1.2c1,0.4,2,1,2.8,1.8c2.6,2.6,3.4,5.3,2.6,8.3c-0.7,2.4-2.4,4.7-5.1,6.8
						c-1.1,0.8-2.2,1.4-3.5,1.9c-3.9,1.5-8.1,1.9-12.3,1.2c-2.3-0.5-3.8-1.2-4.4-2.1c-0.3-0.9-0.3-2,0-2.9c0.3-1.4,0.8-2.7,1.3-4
						c1.1-2.7,2.3-5.3,3.7-7.9c0-0.2,0.1-0.3,0.2-0.4c0.2-0.2,0.5-0.2,0.8-0.1c0.2,0.1,0.3,0.2,0.4,0.4c0.6,0.7,1.3,1.3,2.1,1.8
						c0.7,0.4,1.4,0.7,2.2,0.9c0.1,0,0.2,0,0.4,0c0,0,0-0.1-0.1-0.1c-0.1-0.3-0.4-0.6-0.6-0.9c-0.6-0.6-1.2-1.1-1.9-1.5
						c-0.5-0.3-1.3-0.6-2.4-1.1c-0.1,0-0.1,0-0.2-0.1c-0.1,0-0.1-0.1-0.2-0.1c-1-0.4-1.8-0.8-2.4-1c-0.8-0.4-1.5-1-2.2-1.6
						c-1.6-1.6-2.4-3.7-2.4-5.9c-0.1-1.9,0.3-3.9,1.1-5.6c0.9-2.2,2.6-4,4.7-5.1c1.7-0.9,3.6-1.3,5.6-1.3c1.2,0,2.4,0.3,3.6,0.6
						c2,0.6,3.8,1.5,5.4,2.8c0.8,0.7,1.5,1.5,1.9,2.5c0.1,0.5-0.3,2.2-1.3,5c0,0.2-0.1,0.4-0.2,0.5c-0.1,0.4-0.4,1.1-0.8,2.1
						c-0.4,1.1-0.6,1.6-0.6,1.7c0,0.1-0.1,0.2-0.1,0.2v0.1c-0.2,0.3-0.5,0.4-0.8,0.2c0,0-0.1-0.1-0.1-0.1
						C169.3,283.5,168.2,282.9,167.1,282.5z M165.4,293.2c-0.1,0.4-0.5,0.7-0.9,0.7c-0.3,0.1-0.7,0.1-1.1,0
						c-1.8-0.4-3.4-1.2-4.6-2.5c-1.4,2.7-2.5,5.1-3.2,7.1c-0.5,1.2-0.9,2.5-1.2,3.8c-0.2,0.6-0.3,1.3-0.1,2c0.4,0.6,1.5,1.1,3.5,1.5
						c2.1,0.4,4.2,0.5,6.3,0.2c1.6-0.2,3.2-0.5,4.7-1.1c1.8-0.9,3.3-2.1,4.7-3.5c1.2-1.3,2.1-2.9,2.5-4.6c0.5-1.8,0.3-3.7-0.6-5.3
						c-0.7-1.3-1.8-2.5-3.1-3.3c-0.9-0.4-1.8-0.8-2.7-1.1c-0.6-0.2-1.3-0.5-2.1-0.7c-0.3-0.1-0.6-0.2-1-0.3h-0.1L166,286
						c-0.1,0-0.2-0.1-0.3-0.1c-0.1,0-0.2-0.1-0.2,0c-0.8-0.2-1.5-0.5-2.2-1c-0.3-0.2-0.5-0.5-0.6-0.9c-0.1-0.4-0.1-0.9,0.2-1.3
						c0.9-1.6,2.8-2.2,4.5-1.6c1.1,0.3,2,0.8,2.9,1.5c0.6-1.8,1-2.8,1.1-3.1c0.1-0.2,0.1-0.3,0.2-0.5c0.4-0.9,0.7-1.9,0.9-2.9
						c0.1-0.3,0.2-0.7,0.2-1c0.1-0.1,0.1-0.2,0.1-0.3v-0.1c-0.3-0.8-0.8-1.4-1.5-1.9c-1.5-1.2-3.2-2.1-5-2.6
						c-1.1-0.3-2.1-0.5-3.2-0.6c-1.7,0-3.4,0.4-4.9,1.1c-1.9,1-3.3,2.6-4.1,4.5c-0.7,1.6-1,3.3-1,5c0,1.9,0.7,3.7,2,5.1
						c0.5,0.5,1.2,1,1.9,1.3c0.7,0.4,1.5,0.7,2.3,1l0.2,0.1h0.1c1.2,0.5,2,0.9,2.6,1.2c0.9,0.4,1.6,1,2.3,1.7
						C165.4,291.8,165.7,292.6,165.4,293.2z"/>
				</g>
				<g>
				</g>
			</g>
			<g id="XMLID_5_">
				<g>
					<path class="st6" d="M214,282.5c0.3,2-0.2,3.9-1.4,5.5c-1.7,2.3-3.9,4.2-6.4,5.6c-0.3,0.2-0.7,0.3-1.2,0.5h0
						c-1.6,0.7-2.6,1.1-3.2,1.4c-0.4,0.1-0.7,0.3-1.1,0.5c-0.1,0.1-0.3,0.1-0.4,0.2c-0.1,0.1-0.1,0.1-0.2,0.2
						c-0.2,0.2-0.2,0.5,0,0.7c0.7,1.1,1.2,1.9,1.5,2.5c0.1,0.3,0.3,0.6,0.5,0.9c1,1.8,1.8,3.3,2.3,4.3c0.2,0.4,0.4,0.9,0.6,1.4
						c0,0,0.1,0,0.1,0.1c-1.8,1-5.6,2.1-11.2,3.2c-0.2-0.8-0.7-2.1-1.2-4.1c-0.1-0.2-0.4-1.4-1.1-3.5s-1.1-3.5-1.3-4.2
						c-0.4-1.5-0.8-2.8-1.2-4.1c-1.5-5-2.6-8.9-3.4-11.6c-0.5-1.7-0.8-3-1-3.9c-0.1-0.5-0.2-0.9-0.2-1.2c0-0.1,0-0.1,0-0.2
						c0.9-0.8,2.1-1.4,3.3-1.7c0.6-0.2,1.4-0.4,2.4-0.7h0.1h0.2l0.3-0.1c4.4-1.2,9.1-1.3,13.5-0.2c2.1,0.5,4.1,1.3,5.9,2.4
						C212.4,278.5,213.7,280.5,214,282.5z M198.2,287.4c0.2-1,0.2-2-0.1-3c-0.2-1-0.8-1.9-1.6-2.5c-0.9-0.6-2.2-0.6-3.1,0.1h0
						c0,0-0.1,0-0.1,0.1c-0.1,0-0.2,0-0.3,0.1c-0.1,0.1-0.3,0.2-0.3,0.4c-0.1,0.2-0.1,0.3,0,0.5c0.4,0.9,0.7,1.8,0.9,2.8
						c0.1,0.3,0.2,0.8,0.4,1.5c0.3,1.2,0.6,2,0.7,2.6c0,0.2,0.1,0.3,0.3,0.4c0.1,0.1,0.3,0.1,0.5,0c0.3-0.1,0.5-0.3,0.5-0.6
						c0.2,0.1,0.4,0.1,0.5,0C197.5,289.3,198.1,288.4,198.2,287.4z"/>
					<path class="st8" d="M196.8,284.7c0.2,0.8,0.3,1.6,0.1,2.4c-0.2,0.8-0.5,1.2-0.9,1.4c-0.1,0.1-0.2,0.1-0.3,0.2l-0.5-1.7
						c-0.2-0.7-0.3-1.3-0.4-1.6c-0.3-0.9-0.5-1.7-0.8-2.3h0c0.5-0.4,1.2-0.4,1.7-0.1C196.3,283.4,196.7,284,196.8,284.7z"/>
				</g>
				<g>
				</g>
			</g>
			<g id="XMLID_6_">
				<g>
					<path class="st6" d="M237.3,279.5c2.4-2.7,3.2-5.6,2.3-8.6l0,0c0.2-0.1,0.4-0.3,0.6-0.5c0,0.2,0,0.4,0,0.6
						c0.1,1.2,0,2.5-0.2,3.7c-0.4,2.3-1.5,4.5-3.3,6c-0.8,0.7-1.8,1.3-2.8,1.8C235.2,281.6,236.3,280.6,237.3,279.5z"/>
					<path class="st6" d="M235.8,258.8c0.3,1.2,0.1,2.4-0.6,3.4c-0.4,0.5-1.1,0.7-1.7,0.3c1-0.1,1.8-0.8,1.9-1.8
						c0.1-0.7,0-1.4-0.2-2c-0.1-0.5-0.4-1.2-0.8-2.2c-0.1-0.4-0.2-0.7-0.3-0.8c-0.3-0.8-0.5-1.5-0.7-2.1l0.1,0.1
						C234.7,255.2,235.5,256.9,235.8,258.8z"/>
					<path class="st6" d="M223.2,259.2c1.9-1.6,3.2-2.6,4-3.2l0.6,1.2c0.1,0.2,0.1,0.3,0.2,0.5c0.1,0.2,0.2,0.4,0.3,0.6
						c1.4,2.7,2.8,4.4,4.2,5.2c0.6,0.4,1.3,0.5,2,0.4c0.6-0.1,1.2-0.5,1.6-1c0.8-1.3,1.1-2.8,0.8-4.4c-0.3-2.1-1.2-4.1-2.5-5.8
						c0-0.1-0.1-0.1-0.1-0.1v-0.1l-0.2-0.2l0.1,0c0.3-0.2,0.8-0.4,1.3-0.7c1.2-0.6,2.4-1.2,4-1.8c1.6-0.6,3-1.2,4.1-1.5l1.3-0.4
						c0.1,0.2,0.2,0.5,0.3,0.8c1.2,2.5,1.9,4.3,2.3,5.1c1.3,3.1,2.4,6.3,3.3,9.6c0.7,2.5,1.2,5.1,1.4,7.7c0.4,3.5,0,7.1-1,10.5
						c-0.9,2.9-3.4,5.6-7.3,8.1c-2.9,1.9-6,3.3-9.3,4.3c-0.1,0-0.1-0.1-0.1-0.1c-0.2-0.3-0.5-0.7-0.7-1.1c-0.5-0.8-1.1-1.9-1.8-3.4
						c-0.5-1.1-1.1-2.3-1.7-3.6c-0.1-0.4-0.3-0.7-0.5-1c0.5-0.1,0.9-0.2,1-0.2c1-0.2,2-0.5,3-0.9c1.3-0.5,2.5-1.3,3.6-2.2
						c2-1.7,3.3-4.1,3.8-6.8c0.2-1.3,0.3-2.7,0.3-4c0-0.4-0.1-0.8-0.1-1.2c0-0.1-0.1-0.2-0.1-0.4c0,0,0-0.1,0-0.2
						c-0.1-0.3-0.3-0.5-0.7-0.5c-0.5,0.1-1,0.3-1.4,0.7c-0.1,0.1-0.3,0.3-0.7,0.6l-0.7,0.6c-1.3,1.1-2.8,2-4.4,2.6
						c-2.1,0.7-4.4,0.8-6.6,0.2c-1.1-0.3-2.2-0.9-3.1-1.6c-1.1-0.8-2.1-1.7-2.9-2.8c-1.8-2.3-2.6-4.3-2.3-6c0.1-0.1,0.1-0.1,0.2-0.2
						c0.3-0.3,0.7-0.5,1-0.8c1.1-0.9,2.1-1.8,3.1-2.6L223.2,259.2z"/>
					<path class="st6" d="M239.6,270.9c0.8,3.1,0,6-2.3,8.6c-1,1.1-2.1,2.1-3.3,2.9c1-0.5,1.9-1.1,2.8-1.8c1.8-1.5,2.9-3.7,3.3-6
						c0.2-1.2,0.3-2.4,0.2-3.7c0-0.2,0-0.4,0-0.6C240.1,270.6,239.9,270.8,239.6,270.9L239.6,270.9z M237.6,281.7
						c-1.1,0.9-2.3,1.6-3.6,2.2c-1,0.4-2,0.7-3,0.9c-0.1,0-0.5,0.1-1,0.2c0.2,0.3,0.3,0.6,0.5,1c0.6,1.3,1.1,2.5,1.7,3.6
						c0.7,1.5,1.4,2.6,1.8,3.4c0.2,0.4,0.4,0.7,0.7,1.1c0,0,0,0,0.1,0.1c3.3-1,6.4-2.4,9.3-4.3c3.9-2.5,6.3-5.2,7.3-8.1
						c1-3.4,1.4-7,1-10.5c-0.2-2.6-0.7-5.2-1.4-7.7c-0.9-3.3-2-6.5-3.3-9.6c-0.4-0.9-1.1-2.6-2.3-5.1c-0.1-0.3-0.2-0.5-0.3-0.8
						l-1.3,0.4c-1.1,0.4-2.5,0.9-4.1,1.5c-1.6,0.6-2.8,1.2-4,1.8c-0.5,0.3-1,0.5-1.3,0.7l-0.1,0l0.2,0.2v0.1c0.1,0,0.1,0.1,0.1,0.1
						c1.3,1.7,2.2,3.7,2.5,5.8c0.3,1.5,0,3.1-0.8,4.4c-0.4,0.5-1,0.9-1.6,1c-0.7,0.1-1.4-0.1-2-0.4c-1.4-0.8-2.9-2.5-4.2-5.2
						c-0.1-0.2-0.2-0.4-0.3-0.6c-0.1-0.1-0.2-0.3-0.2-0.5l-0.6-1.2c-0.8,0.6-2.1,1.7-4,3.2l-0.3,0.2c-0.9,0.8-2,1.7-3.1,2.6
						c-0.3,0.3-0.7,0.6-1,0.8c-0.1,0.1-0.1,0.1-0.2,0.2c-0.3,1.7,0.4,3.7,2.3,6c0.8,1.1,1.8,2,2.9,2.8c0.9,0.7,2,1.2,3.1,1.6
						c2.2,0.6,4.5,0.5,6.6-0.2c1.6-0.6,3.1-1.5,4.4-2.6l0.7-0.6c0.4-0.3,0.7-0.5,0.7-0.6c0.4-0.4,0.9-0.6,1.4-0.7
						c0.3,0,0.6,0.2,0.7,0.5c0,0.1,0,0.1,0,0.2c0.1,0.1,0.1,0.2,0.1,0.4c0.1,0.4,0.1,0.8,0.1,1.2c0.1,1.3,0,2.7-0.3,4
						C240.9,277.6,239.6,280,237.6,281.7z M235.2,262.2c0.6-1,0.8-2.2,0.6-3.4c-0.3-1.9-1.1-3.6-2.2-5.1l-0.1-0.1
						c0.2,0.5,0.4,1.2,0.7,2.1c0.1,0.2,0.2,0.4,0.3,0.8c0.4,1,0.7,1.8,0.8,2.2c0.2,0.6,0.3,1.3,0.2,2c-0.1,1-1,1.7-1.9,1.8
						C234.1,262.9,234.8,262.7,235.2,262.2z M229.3,286.5c-0.2-0.4-0.3-0.8-0.6-1.2l-0.1-0.4v-0.1c-0.1-0.1-0.1-0.2-0.1-0.3
						c0-0.1,0-0.3,0.1-0.4c0.1-0.1,0.3-0.3,0.5-0.3c0.2-0.1,0.3-0.1,0.5-0.1c0.1,0,0.2,0,0.2,0c0.1,0,0.2-0.1,0.4-0.1
						c0.1,0,0.3-0.1,0.4-0.1c2.3-1.1,4.4-2.6,6.1-4.5c2.1-2.5,2.8-5,2.2-7.6c-0.1,0.1-0.2,0.2-0.3,0.2c-1.4,1.2-3,2.2-4.7,2.8
						c-2.4,0.8-5,0.9-7.4,0.2c-1.2-0.4-2.4-0.9-3.4-1.7c-1.2-0.9-2.3-1.9-3.2-3c-2.2-2.7-3-5.2-2.5-7.4c0-0.1,0.1-0.2,0.2-0.3
						c0,0,0,0,0-0.1h0.1l0.3-0.2c0.3-0.3,0.7-0.6,1-0.9c1.1-0.9,2.1-1.8,3.1-2.6c0.1-0.1,0.2-0.2,0.3-0.2c1.6-1.4,3.2-2.6,4.9-3.8
						c0.1-0.1,0.3-0.1,0.5-0.1c0.2,0.1,0.3,0.2,0.4,0.3c0,0,0,0.1,0,0.1c0.2,0.4,0.5,1,0.9,1.8c0,0.1,0.1,0.2,0.2,0.4
						c0.1,0.2,0.2,0.5,0.3,0.7c0.7,1.6,1.7,3,2.9,4.2c0.5,0,1-0.1,1.5-0.3c0.4-0.2,0.6-0.6,0.6-1c0-0.6,0-1.1-0.2-1.7
						c-0.2-0.7-0.5-1.5-0.8-2.2c-0.1-0.4-0.2-0.7-0.3-0.8c-0.3-0.9-0.6-1.8-0.8-2.8c0-0.1,0-0.3,0.2-0.4c-0.1-0.2-0.1-0.5,0-0.7
						c0.1-0.2,0.2-0.4,0.4-0.5l0.4-0.3c0.3-0.2,0.8-0.4,1.4-0.7c1.2-0.6,2.5-1.2,4.1-1.8c1.5-0.7,3.1-1.2,4.2-1.6
						c0.6-0.2,1.1-0.3,1.4-0.4c0.2-0.1,0.4-0.1,0.6-0.1c0.3,0,0.6,0.1,0.8,0.4c0.2,0.3,0.3,0.7,0.5,1.1c1.1,2.5,1.9,4.2,2.3,5.1
						c1.3,3.2,2.4,6.4,3.4,9.7c0.8,2.6,1.2,5.3,1.5,8c0.4,3.7,0,7.5-1.1,11.1c-1,3.2-3.6,6.1-7.8,8.8c-3.1,2-6.5,3.5-10,4.5
						c-0.3,0.1-0.6,0-0.8-0.2c-0.1-0.1-0.3-0.3-0.4-0.4c-0.3-0.4-0.5-0.8-0.8-1.2c-0.5-0.9-1.1-2-1.9-3.5
						C230.5,289,229.9,287.8,229.3,286.5z"/>
				</g>
				<g>
				</g>
			</g>
			<g id="XMLID_7_">
				<g>
					<path class="st7" d="M263.5,250.7c0.1,0.1,0.1,0.3,0.1,0.4c-0.1,0-0.1,0.1-0.1,0.1c-0.7,0.4-1.4,0.7-2.1,1
						c-0.6,0.3-1.3,0.5-2,0.6h0c0-0.2,0-0.3-0.1-0.5c-0.6-2.4-1.5-4.7-2.8-6.8c-0.9-1.8-2.2-3.5-3.6-4.9l1.4-0.6
						c0.6-0.3,1.2-0.5,1.8-0.7c0.2-0.1,0.5-0.1,0.7-0.2c0.1,0.1,0.2,0.2,0.4,0.4c0.3,0.4,0.6,0.8,1.1,1.4c0.9,1.2,1.7,2.6,2.6,4.2
						c0.9,1.3,1.6,2.8,2.2,4.2C263.2,249.7,263.4,250.2,263.5,250.7z"/>
					<path class="st7" d="M252.1,240.9c1.2,1.1,2.2,2.4,3,3.9c-0.3-0.4-0.9-1.3-1.9-2.5l-0.6-0.8c-0.1-0.1-0.2-0.1-0.2-0.2l-0.2-0.2
						C252.1,240.9,252.1,240.9,252.1,240.9L252.1,240.9z"/>
					<path class="st7" d="M253.2,242.3c1,1.2,1.6,2,1.9,2.5c-0.8-1.4-1.8-2.7-3-3.9l-0.1,0c0.1,0,0.1,0,0.1,0.1l0.2,0.2
						c0.1,0.1,0.2,0.2,0.2,0.2L253.2,242.3z M263.5,251.1c0-0.1,0-0.3-0.1-0.4c-0.1-0.5-0.2-1-0.5-1.5c-0.7-1.4-1.4-2.9-2.2-4.2
						c-0.9-1.5-1.8-2.9-2.6-4.2c-0.4-0.6-0.8-1-1.1-1.4c-0.1-0.1-0.2-0.3-0.4-0.4c-0.2,0-0.5,0.1-0.7,0.2c-0.6,0.2-1.2,0.4-1.8,0.7
						l-1.4,0.6c1.4,1.4,2.7,3.1,3.6,4.9c1.3,2.1,2.2,4.4,2.8,6.8c0,0.2,0.1,0.3,0.1,0.5h0c0.7-0.1,1.4-0.3,2-0.6
						C262.1,251.9,262.8,251.6,263.5,251.1C263.5,251.2,263.5,251.1,263.5,251.1z M264.8,250.4c0.1,0.4,0.1,0.9-0.1,1.2
						c0,0.2-0.1,0.3-0.3,0.5c-0.8,0.5-1.7,0.9-2.6,1.3c-0.9,0.5-1.9,0.7-3,0.8c-0.2-0.1-0.4-0.2-0.5-0.4c0-0.1,0-0.1-0.1-0.2
						c0-0.1-0.1-0.1-0.1-0.2c0,0,0-0.1,0-0.1c-0.5-1.9-1.4-3.7-2.4-5.3c-0.5-0.8-1.1-1.7-1.7-2.4c-0.3-0.4-0.9-1.2-1.9-2.4l-0.6-0.8
						c0,0-0.1-0.1-0.1-0.1l-0.1-0.1h-0.1l-0.1-0.1c-0.1,0-0.1-0.1-0.2-0.1c-0.1-0.1-0.3-0.3-0.4-0.4c-0.1-0.1-0.1-0.2-0.2-0.3
						c-0.1-0.2,0-0.5,0.1-0.6c0.3-0.4,0.7-0.7,1.2-0.8c0.6-0.3,1.2-0.6,1.9-0.9c0.7-0.3,1.4-0.6,2-0.7c0.5-0.2,1.1-0.3,1.6-0.2
						c0.8,0.6,1.5,1.4,2,2.3c0.9,1.3,1.8,2.7,2.7,4.2c0.9,1.4,1.6,2.9,2.3,4.4C264.4,249.3,264.6,249.8,264.8,250.4z"/>
				</g>
				<g>
				</g>
			</g>
			<g id="XMLID_8_">
				<g>
					<path class="st9" d="M301.4,248.8c0.7,1.6,0.9,3.4,0.7,5.1c-0.2,1.9-0.8,3.8-1.7,5.6c-0.9,1.4-1.9,2.6-3.1,3.7
						c-1.5,1.4-3.2,2.6-5.1,3.5c-1.8,0.9-3,1.2-3.7,0.9c-0.3-0.1-0.7-0.6-1.1-1.6c-0.5-1.2-1-2.5-1.3-3.8c-0.5-2.1-1.1-4.6-1.6-7.6
						c1.8,0.3,3.6,0,5.2-0.7c0.3-0.2,0.6-0.4,0.9-0.7c0.3-0.3,0.4-0.7,0.3-1.1c-0.2-0.7-0.9-1.1-2.2-1.4c-0.9-0.2-1.9-0.2-2.9,0
						c-0.6,0.1-1.6,0.3-2.8,0.6H283c-0.1,0-0.1,0-0.2,0c-0.8,0.2-1.6,0.4-2.4,0.6c-0.8,0.1-1.5,0.1-2.3,0c-1.9-0.3-3.5-1.4-4.6-2.9
						c-1.1-1.4-1.8-2.9-2.2-4.6c-0.5-2-0.3-4.2,0.6-6.1c0.8-1.5,1.9-2.8,3.3-3.8c0.9-0.6,1.9-1.1,2.9-1.4c1.8-0.7,3.6-1,5.5-0.9
						c0,0,0,0,0,0c0.8,0,1.6,0.2,2.3,0.7c0,0.1,0.1,0.2,0.1,0.3c0.2,0.3,0.3,0.7,0.4,1c0.3,0.7,0.6,1.6,0.9,2.9c0,0.1,0,0.2,0.1,0.5
						c0.1,0.3,0.4,1.4,0.9,3.2c-1.1,0-2.1,0.2-3.1,0.5c-1.8,0.5-2.9,2.2-2.7,4c0,0.4,0.2,0.9,0.6,1.1c0.3,0.2,0.6,0.3,1,0.4
						c0.8-0.1,1.6-0.2,2.4-0.6c0.1-0.1,0.1-0.1,0.2-0.1l0.3-0.1l0.3-0.1h0.1c0.4-0.1,0.7-0.2,1-0.3c0.8-0.3,1.5-0.5,2.1-0.7
						c0.9-0.3,1.8-0.5,2.8-0.7c1.5-0.1,3.1,0.2,4.4,0.8C299.5,245.7,300.8,247.1,301.4,248.8z"/>
					<path class="st9" d="M286,232.7c-0.7-0.4-1.5-0.7-2.3-0.7c0,0,0,0,0,0c-1.9-0.1-3.8,0.2-5.5,0.9c-1,0.4-2,0.9-2.9,1.4
						c-1.4,1-2.5,2.3-3.3,3.8c-0.9,1.9-1.2,4.1-0.6,6.1c0.4,1.7,1.1,3.3,2.2,4.6c1.1,1.5,2.8,2.6,4.6,2.9c0.8,0.1,1.5,0.1,2.3,0
						c0.8-0.1,1.6-0.3,2.4-0.6c0.1,0,0.1,0,0.2,0h0.1c1.2-0.3,2.2-0.5,2.8-0.6c0.9-0.2,1.9-0.2,2.9,0c1.3,0.3,2,0.8,2.2,1.4
						c0.1,0.4,0,0.8-0.3,1.1c-0.2,0.3-0.5,0.5-0.9,0.7c-1.6,0.8-3.4,1-5.2,0.7c0.5,3,1,5.5,1.6,7.6c0.3,1.3,0.8,2.6,1.3,3.8
						c0.4,1,0.8,1.5,1.1,1.6c0.6,0.3,1.9,0,3.7-0.9c1.9-0.9,3.6-2.1,5.1-3.5c1.2-1.1,2.3-2.3,3.1-3.7c0.9-1.7,1.5-3.6,1.7-5.6
						c0.2-1.8,0-3.5-0.7-5.1c-0.6-1.7-1.9-3.2-3.6-4c-1.4-0.6-2.9-0.9-4.4-0.8c-0.9,0.2-1.9,0.4-2.8,0.7c-0.6,0.2-1.3,0.4-2.1,0.7
						c-0.3,0.1-0.6,0.2-1,0.3h-0.1l-0.3,0.1l-0.3,0.1c-0.1,0-0.2,0.1-0.2,0.1c-0.8,0.3-1.5,0.5-2.4,0.6c-0.4,0-0.7-0.2-1-0.4
						c-0.4-0.3-0.6-0.7-0.6-1.1c-0.2-1.8,1-3.5,2.7-4c1-0.4,2.1-0.5,3.1-0.5c-0.5-1.8-0.8-2.9-0.9-3.2c-0.1-0.3-0.1-0.4-0.1-0.5
						c-0.4-1.2-0.7-2.2-0.9-2.9c-0.1-0.3-0.2-0.7-0.4-1C286.1,232.9,286.1,232.8,286,232.7z M285.8,242.3c-1.2,0.3-2,1.4-1.9,2.6
						c0,0.1,0.1,0.2,0.4,0.3c0,0,0.1,0,0.1,0c0.1,0,0.3,0,0.4-0.1c0.3-0.1,0.7-0.2,1.3-0.4c0.1,0,0.2,0,0.2-0.1l0.3-0.1l0.3-0.1
						l0.1-0.1c0.4-0.1,0.7-0.2,1-0.3c0.8-0.2,1.5-0.4,2.1-0.6c1.3-0.4,2.3-0.7,3.2-0.9c1.1-0.3,2.2-0.4,3.3-0.2
						c3.6,0.5,5.9,2.3,7,5.2c0.9,2.3,0.9,5.2-0.1,8.5c-0.4,1.3-1,2.5-1.7,3.6c-1,1.7-2.3,3.2-3.7,4.5c-1.6,1.5-3.4,2.8-5.4,3.7
						c-2.2,1-3.8,1.3-4.8,0.9c-0.9-0.5-1.5-1.4-1.8-2.3c-0.5-1.3-1-2.6-1.3-4c-0.7-2.8-1.3-5.6-1.7-8.5c-0.1-0.1-0.1-0.3-0.1-0.4
						c0-0.3,0.3-0.5,0.6-0.5c0.2,0,0.4,0,0.5,0.1c0.9,0.2,1.8,0.2,2.8,0.1c0.8-0.1,1.6-0.3,2.3-0.6c0.2-0.1,0.3-0.2,0.4-0.3
						c0,0-0.1,0-0.1,0c-0.3-0.2-0.7-0.3-1-0.3c-0.8-0.2-1.6-0.2-2.4,0c-0.6,0.1-1.4,0.3-2.6,0.5c0,0-0.1,0-0.2,0
						c-0.1,0-0.1,0-0.2,0.1c-1.1,0.3-1.9,0.5-2.6,0.6c-0.9,0.1-1.8,0.1-2.7,0c-2.2-0.4-4.1-1.6-5.5-3.4c-1.2-1.5-2.1-3.3-2.4-5.2
						c-0.6-2.3-0.3-4.8,0.8-6.9c0.9-1.7,2.2-3.2,3.7-4.3c1-0.7,2.1-1.2,3.3-1.6c1.9-0.7,4-1.1,6.1-0.9c1.1,0,2.1,0.4,3,0.9
						c0.4,0.4,1,1.9,1.9,4.8c0.1,0.2,0.1,0.4,0.2,0.5c0.1,0.4,0.3,1.1,0.6,2.2s0.5,1.7,0.5,1.8c0,0.1,0,0.2,0,0.2v0.1
						c0,0.3-0.2,0.6-0.5,0.6c0,0-0.1,0-0.1,0C288.1,241.8,286.9,241.9,285.8,242.3z"/>
				</g>
				<g>
				</g>
			</g>
			
				<linearGradient id="SVGID_4_" gradientUnits="userSpaceOnUse" x1="165.3171" y1="60.34" x2="165.3171" y2="95.99" gradientTransform="matrix(1 0 0 -1 0 416)">
				<stop  offset="0" style="stop-color:#310804"/>
				<stop  offset="1" style="stop-color:#681D17"/>
			</linearGradient>
			<path class="st10" d="M165.3,314.8c0,0-102.4-0.7-141.6-29c0,0-6.3,31.5,3.3,41.5c11.5,12,67.2,28.3,138.3,28.3
				s126.8-16.3,138.3-28.3c9.6-10,3.3-41.5,3.3-41.5C267.7,314.1,165.3,314.8,165.3,314.8z"/>
			
				<linearGradient id="SVGID_5_" gradientUnits="userSpaceOnUse" x1="166.6392" y1="200.6162" x2="166.6392" y2="342.2062" gradientTransform="matrix(1 0 0 -1 0 416)">
				<stop  offset="0" style="stop-color:#BD6B20"/>
				<stop  offset="1.000000e-02" style="stop-color:#BE6C21"/>
				<stop  offset="0.67" style="stop-color:#E39A49"/>
				<stop  offset="1" style="stop-color:#F1AC58"/>
			</linearGradient>
			<path class="st11" d="M166.6,73.8C63.9,75,20.4,149.8,26.6,172.9c10.5,39.4,103.5,42.5,140.1,42.5s129.6-3.1,140.1-42.5
				C312.9,149.8,269.4,75,166.6,73.8z"/>
			<path class="st12" d="M276.8,162.7c1,2.7-0.4,4.6-2.8,5.4s-4.6,0.4-5.6-2.3c-1-2.7-1-10.2,0.7-10.8
				C270.7,154.4,275.8,160,276.8,162.7z"/>
			<path class="st12" d="M273.4,166.5c-2.1,0.8-4.2,0.4-5.3-1.8c0.1,0.4,0.2,0.8,0.3,1.1c1,2.7,3.3,3.1,5.6,2.3s3.8-2.7,2.8-5.4
				c-0.1-0.3-0.3-0.7-0.5-1C276.9,164,275.6,165.6,273.4,166.5z"/>
			<path class="st12" d="M263.7,127.4c-2.9-0.2-4-2.3-3.8-4.7s1.5-4.4,4.4-4.3s9.7,3.2,9.6,5.1C273.7,125.2,266.6,127.6,263.7,127.4
				z"/>
			<path class="st12" d="M261.6,122.8c0.1-2.3,1.4-4,3.8-4.2c-0.4-0.1-0.8-0.2-1.2-0.2c-2.9-0.2-4.2,1.8-4.4,4.3s1,4.5,3.8,4.7
				c0.4,0,0.8,0,1.2,0C262.5,126.9,261.5,125.1,261.6,122.8z"/>
			<path class="st12" d="M41.1,149.5c-2-2-1.4-4.3,0.3-6.1c1.8-1.7,4.1-2.3,6.1-0.3c2,2,5.1,8.8,3.8,10.2S43.1,151.6,41.1,149.5z"/>
			<path class="st12" d="M42.6,144.7c1.6-1.6,3.7-2.1,5.6-0.6c-0.2-0.3-0.5-0.6-0.7-0.9c-2-2-4.3-1.5-6.1,0.3s-2.3,4-0.3,6.1
				c0.3,0.3,0.6,0.5,0.9,0.7C40.5,148.4,41,146.3,42.6,144.7z"/>
			<path class="st12" d="M85.9,141.3c-2.9-0.2-4-2.2-3.8-4.7c0.2-2.5,1.5-4.4,4.4-4.3s9.7,3.2,9.6,5.1
				C95.9,139.1,88.8,141.5,85.9,141.3z"/>
			<path class="st12" d="M83.8,136.7c0.1-2.3,1.4-4,3.8-4.1c-0.4-0.1-0.8-0.2-1.2-0.2c-2.9-0.2-4.2,1.8-4.4,4.3s1,4.5,3.8,4.7
				c0.4,0,0.8,0,1.2,0C84.7,140.9,83.7,139,83.8,136.7z"/>
			<path class="st12" d="M237.1,148.6c-2.6,1.2-4.6-0.1-5.6-2.3c-1-2.2-0.8-4.6,1.8-5.8s10.1-1.8,10.8-0.1
				C244.9,142,239.7,147.4,237.1,148.6z"/>
			<path class="st12" d="M233.1,145.5c-1-2.1-0.7-4.2,1.4-5.4c-0.4,0.1-0.8,0.2-1.1,0.4c-2.6,1.2-2.9,3.5-1.8,5.8
				c1,2.3,3,3.5,5.6,2.3c0.4-0.2,0.7-0.3,1-0.6C235.8,148.8,234,147.6,233.1,145.5z"/>
			<path class="st12" d="M240.6,166.2c-2.8-0.7-3.5-2.9-2.9-5.3c0.6-2.4,2.3-4.1,5.1-3.4s9,4.8,8.5,6.7
				C250.9,165.8,243.4,166.8,240.6,166.2z"/>
			<path class="st12" d="M239.4,161.2c0.5-2.2,2-3.7,4.5-3.4c-0.4-0.2-0.7-0.3-1.1-0.4c-2.8-0.7-4.5,1-5.1,3.4s0.2,4.6,2.9,5.3
				c0.4,0.1,0.8,0.1,1.1,0.2C239.5,165.5,238.8,163.5,239.4,161.2z"/>
			<path class="st12" d="M199.9,149.1c-2.4-1.6-2.3-3.9-0.9-6s3.5-3.1,5.9-1.5s6.8,7.6,5.7,9.2C209.6,152.2,202.2,150.7,199.9,149.1
				z"/>
			<path class="st12" d="M200.4,144.1c1.3-1.9,3.2-2.8,5.4-1.7c-0.3-0.3-0.6-0.5-0.9-0.7c-2.4-1.6-4.5-0.6-5.9,1.5s-1.4,4.4,0.9,6
				c0.3,0.2,0.6,0.4,1,0.5C199.1,148.1,199.2,146,200.4,144.1z"/>
			<path class="st12" d="M198.6,75c-1.4-1.9-0.7-3.7,0.9-4.9c1.6-1.2,3.6-1.4,5,0.5s3.1,7.8,1.8,8.7C205.3,80.1,200,76.8,198.6,75z"
				/>
			<path class="st12" d="M200.4,71.2c1.5-1.1,3.2-1.3,4.6,0.2c-0.1-0.3-0.3-0.6-0.5-0.8c-1.4-1.9-3.3-1.7-5-0.5s-2.3,3-0.9,4.9
				c0.2,0.2,0.4,0.5,0.6,0.7C198.3,73.9,198.9,72.3,200.4,71.2z"/>
			<path class="st12" d="M215.2,119.2c-0.6-2.4,0.8-3.9,2.9-4.5s4.1,0,4.8,2.5s0,8.9-1.6,9.4C219.8,126.9,215.8,121.6,215.2,119.2z"
				/>
			<path class="st12" d="M218.5,116.2c1.9-0.5,3.7,0,4.5,2c0-0.3-0.1-0.7-0.2-1c-0.7-2.4-2.6-3-4.8-2.5s-3.5,2.1-2.9,4.5
				c0.1,0.3,0.2,0.7,0.4,1C215.3,118,216.5,116.7,218.5,116.2z"/>
			<path class="st12" d="M146.5,170.6c-2.1-1.4-2-3.4-0.8-5.3c1.2-1.8,3.1-2.7,5.2-1.3s5.9,6.7,5,8.1
				C155,173.5,148.6,172,146.5,170.6z"/>
			<path class="st12" d="M147,166.2c1.1-1.7,2.8-2.5,4.7-1.5c-0.3-0.2-0.5-0.5-0.8-0.7c-2.1-1.4-4-0.5-5.2,1.3
				c-1.2,1.8-1.3,3.9,0.8,5.3c0.3,0.2,0.6,0.3,0.9,0.5C145.8,169.7,145.9,167.8,147,166.2z"/>
			<path class="st12" d="M109.5,147.9c-2.1-1.4-2-3.5-0.8-5.3s3.1-2.7,5.2-1.3s5.9,6.7,5,8.1C118,150.6,111.6,149.3,109.5,147.9z"/>
			<path class="st12" d="M109.9,143.4c1.1-1.7,2.8-2.5,4.7-1.5c-0.3-0.2-0.5-0.4-0.8-0.6c-2.1-1.4-4-0.5-5.2,1.3s-1.3,3.9,0.8,5.3
				c0.3,0.2,0.6,0.3,0.9,0.5C108.8,147,108.8,145.1,109.9,143.4z"/>
			<path class="st12" d="M89.2,107c-0.8-2.8,0.9-4.6,3.3-5.2s4.8,0,5.5,2.9s0,10.4-1.8,10.9C94.6,115.9,90,109.8,89.2,107z"/>
			<path class="st12" d="M93,103.5c2.2-0.6,4.3,0,5.2,2.3c0-0.4-0.1-0.8-0.2-1.2c-0.8-2.8-3.1-3.5-5.5-2.9s-4.1,2.4-3.3,5.2
				c0.1,0.4,0.3,0.7,0.4,1.1C89.3,105.6,90.8,104.1,93,103.5z"/>
			<path class="st12" d="M189.1,112.5c0.9-2.7,3.2-3.3,5.5-2.5s3.9,2.5,3,5.3s-5.5,8.6-7.3,8C188.7,122.7,188.2,115.2,189.1,112.5z"
				/>
			<path class="st12" d="M194,111.6c2.2,0.7,3.6,2.3,3.1,4.7c0.2-0.3,0.3-0.7,0.5-1.1c0.9-2.7-0.7-4.5-3-5.3s-4.6-0.2-5.5,2.5
				c-0.1,0.4-0.2,0.7-0.2,1.1C189.8,111.4,191.9,110.9,194,111.6z"/>
			<path class="st12" d="M69.2,123.5c0.9-2.7,3.2-3.3,5.5-2.6s3.9,2.6,3,5.3c-0.9,2.7-5.5,8.6-7.3,8
				C68.8,133.7,68.2,126.2,69.2,123.5z"/>
			<path class="st12" d="M74.1,122.6c2.2,0.7,3.6,2.3,3.1,4.7c0.2-0.4,0.3-0.7,0.5-1.1c0.9-2.7-0.7-4.5-3-5.3s-4.6-0.2-5.5,2.6
				c-0.1,0.4-0.2,0.7-0.3,1.1C69.9,122.4,71.9,121.9,74.1,122.6z"/>
			<path class="st12" d="M112,158.9c2.7-1.1,4.6,0.3,5.5,2.6c0.9,2.3,0.6,4.6-2.1,5.7s-10.1,1.3-10.8-0.4
				C103.9,165.2,109.4,160,112,158.9z"/>
			<path class="st12" d="M115.9,162.2c0.9,2.1,0.5,4.2-1.6,5.4c0.4-0.1,0.8-0.2,1.1-0.3c2.7-1.1,3-3.4,2.1-5.7s-2.8-3.7-5.5-2.6
				c-0.3,0.1-0.7,0.3-1,0.5C113.3,158.8,115,160.1,115.9,162.2z"/>
			<path class="st12" d="M142.9,141.1c2,2.1,1.4,4.3-0.4,6.1s-4.1,2.2-6.1,0.2c-2-2.1-5-8.9-3.6-10.2S140.9,139,142.9,141.1z"/>
			<path class="st12" d="M141.3,145.9c-1.6,1.6-3.7,2.1-5.6,0.5c0.2,0.3,0.5,0.6,0.7,0.9c2,2.1,4.3,1.6,6.1-0.2s2.4-4,0.4-6.1
				c-0.3-0.3-0.6-0.5-0.9-0.8C143.5,142.2,143,144.3,141.3,145.9z"/>
			<path class="st12" d="M183.2,177.3c-2.5,1.4-4.6,0.3-5.8-1.9s-1.1-4.5,1.4-5.9c2.5-1.4,9.9-2.6,10.8-1
				C190.4,170,185.7,175.9,183.2,177.3z"/>
			<path class="st12" d="M178.9,174.5c-1.1-2-1.1-4.1,0.9-5.5c-0.4,0.1-0.7,0.3-1.1,0.5c-2.5,1.4-2.6,3.8-1.4,5.9s3.3,3.3,5.8,1.9
				c0.3-0.2,0.7-0.4,1-0.7C181.9,177.5,180,176.5,178.9,174.5z"/>
			<path class="st12" d="M203.3,175.6c-0.7,2.2-2.5,2.7-4.4,2.1c-1.9-0.6-3.1-2-2.5-4.2s4.3-6.9,5.7-6.5S203.9,173.5,203.3,175.6z"
				/>
			<path class="st12" d="M199.3,176.4c-1.7-0.5-2.9-1.8-2.5-3.7c-0.1,0.3-0.2,0.6-0.4,0.9c-0.7,2.2,0.6,3.6,2.5,4.2s3.7,0.1,4.4-2.1
				c0.1-0.3,0.1-0.6,0.2-0.9C202.7,176.5,201,176.9,199.3,176.4z"/>
			<path class="st12" d="M172,70.3c2,2,1.3,4.5-0.6,6.3S167,79.1,165,77c-2-2.1-4.8-9-3.3-10.5C163,65.3,170,68.2,172,70.3z"/>
			<path class="st12" d="M170.2,75.3c-1.8,1.7-4,2.3-5.9,0.8c0.2,0.3,0.5,0.6,0.7,0.9c2,2.1,4.4,1.4,6.4-0.4
				c1.9-1.9,2.6-4.3,0.6-6.3c-0.3-0.3-0.6-0.5-0.9-0.7C172.6,71.5,171.9,73.6,170.2,75.3z"/>
			<path class="st12" d="M119.3,75.9c1.5,1.6,1,3.4-0.5,4.8s-3.3,1.9-4.9,0.3c-1.5-1.6-3.7-6.9-2.5-8
				C112.5,72,117.8,74.4,119.3,75.9z"/>
			<path class="st12" d="M117.9,79.8c-1.4,1.3-3,1.8-4.5,0.6c0.2,0.2,0.4,0.5,0.6,0.7c1.5,1.6,3.4,1.1,4.9-0.3s2-3.3,0.5-4.8
				c-0.2-0.2-0.4-0.4-0.7-0.6C119.7,76.8,119.2,78.5,117.9,79.8z"/>
			<path class="st12" d="M137.1,113.3c-2.8,0.4-4.4-1.4-4.7-3.8c-0.4-2.4,0.6-4.6,3.4-5c2.8-0.4,10.1,1.2,10.4,3
				C146.5,109.1,139.9,112.9,137.1,113.3z"/>
			<path class="st12" d="M134.2,109.2c-0.3-2.3,0.5-4.2,2.8-4.9c-0.4,0-0.8,0-1.2,0.1c-2.8,0.4-3.8,2.6-3.4,5
				c0.4,2.4,1.9,4.3,4.7,3.8c0.4-0.1,0.8-0.2,1.1-0.3C135.8,113,134.4,111.4,134.2,109.2z"/>
			<path class="st12" d="M157.8,118.9c-0.5-2.1,0.7-3.3,2.5-3.8s3.5,0.1,4,2.2s-0.2,7.6-1.5,7.9S158.3,121,157.8,118.9z"/>
			<path class="st12" d="M160.6,116.4c1.7-0.4,3.2,0.1,3.8,1.8c0-0.3-0.1-0.6-0.1-0.9c-0.5-2.1-2.2-2.6-4-2.2s-3,1.7-2.5,3.8
				c0.1,0.3,0.2,0.6,0.3,0.8C157.8,118.1,158.9,116.7,160.6,116.4C160.5,116.4,160.6,116.4,160.6,116.4z"/>
			<path class="st12" d="M172.1,149.3c-1.9,0.3-2.9-0.9-3.2-2.6c-0.2-1.7,0.4-3.2,2.3-3.4s6.9,0.8,7.1,2.1S174,149,172.1,149.3z"/>
			<path class="st12" d="M170.1,146.5c-0.4-1.4,0.4-2.9,1.9-3.3c0,0,0,0,0.1,0c-0.3,0-0.5,0-0.8,0c-1.9,0.3-2.6,1.8-2.3,3.4
				c0.2,1.7,1.3,2.9,3.2,2.6c0.3,0,0.5-0.1,0.8-0.2C171.4,149.1,170.1,148,170.1,146.5z"/>
			<path class="st12" d="M221.5,182.4c-1.9,0.3-3-0.9-3.2-2.6c-0.2-1.7,0.4-3.1,2.3-3.4s6.9,0.8,7.1,2.1
				C227.9,179.7,223.5,182.1,221.5,182.4z"/>
			<path class="st12" d="M219.5,179.6c-0.4-1.4,0.5-2.9,1.9-3.3c0,0,0,0,0,0c-0.3,0-0.6,0-0.8,0c-1.9,0.3-2.6,1.8-2.3,3.4
				s1.3,2.9,3.2,2.6c0.3,0,0.5-0.1,0.8-0.2C220.8,182.2,219.6,181.1,219.5,179.6z"/>
			<path class="st12" d="M136.2,179.2c1.8-0.8,3.1,0.1,3.8,1.6c0.7,1.5,0.5,3.1-1.2,4s-6.8,1.2-7.4,0.1
				C130.9,183.7,134.5,180,136.2,179.2z"/>
			<path class="st12" d="M139,181.3c0.8,1.3,0.4,2.9-0.9,3.7c0,0,0,0,0,0c0.3-0.1,0.5-0.2,0.8-0.3c1.8-0.8,2-2.4,1.2-4
				c-0.8-1.6-2.1-2.4-3.8-1.6c-0.2,0.1-0.5,0.2-0.7,0.4C137,179.1,138.5,179.8,139,181.3C139,181.2,139,181.3,139,181.3z"/>
			<path class="st12" d="M246,107c1.1,1.6,0.4,3.1-1,4s-3,1-4.1-0.6s-2.3-6.6-1.2-7.3C240.7,102.4,244.9,105.4,246,107z"/>
			<path class="st12" d="M244.3,110.1c-1.1,1-2.8,0.8-3.8-0.3c0,0,0,0,0,0c0.1,0.2,0.2,0.5,0.4,0.7c1.1,1.6,2.7,1.5,4.1,0.6
				s2.1-2.4,1-4c-0.2-0.2-0.3-0.4-0.5-0.6C246.2,107.7,245.6,109.4,244.3,110.1C244.3,110.1,244.3,110.1,244.3,110.1z"/>
			<path class="st12" d="M286.3,145.1c-1.4-1.3-1-2.9,0.1-4.1c1.1-1.2,2.7-1.6,4.1-0.2s3.5,6,2.7,6.9
				C292.4,148.5,287.7,146.5,286.3,145.1z"/>
			<path class="st12" d="M287.3,141.8c0.9-1.2,2.6-1.4,3.8-0.5c0,0,0,0,0,0c-0.2-0.2-0.3-0.4-0.5-0.6c-1.4-1.4-3-1-4.1,0.2
				c-1.1,1.2-1.5,2.8-0.1,4.1c0.2,0.2,0.4,0.4,0.6,0.5C286,144.5,286.1,142.8,287.3,141.8C287.3,141.8,287.3,141.8,287.3,141.8z"/>
			<path class="st12" d="M81.7,171.5c-1.4-1.4-1-2.9,0.2-4.2s2.7-1.6,4.1-0.2s3.6,6,2.7,6.9C87.8,174.9,83.1,172.9,81.7,171.5z"/>
			<path class="st12" d="M82.7,168.2c0.9-1.2,2.6-1.4,3.8-0.5c0,0,0,0,0,0c-0.2-0.2-0.3-0.4-0.5-0.6c-1.4-1.4-3-1-4.1,0.2
				s-1.5,2.8-0.2,4.1c0.2,0.2,0.4,0.3,0.6,0.5C81.4,170.8,81.6,169.1,82.7,168.2C82.7,168.2,82.7,168.2,82.7,168.2z"/>
			<path class="st12" d="M112.4,119.8c1.4-1.3,3-0.9,4.1,0.4s1.4,2.8,0,4.1s-6.2,3.2-7,2.3S111,121.1,112.4,119.8z"/>
			<path class="st12" d="M115.6,121c1.1,1,1.2,2.7,0.3,3.8c0,0,0,0,0,0c0.2-0.1,0.4-0.3,0.6-0.5c1.4-1.3,1.1-2.9,0-4.1
				s-2.7-1.7-4.1-0.4c-0.2,0.2-0.4,0.4-0.5,0.6C113,119.5,114.7,119.8,115.6,121C115.6,120.9,115.6,121,115.6,121z"/>
			<path class="st12" d="M74.9,148.7c1.9,0,2.8,1.3,2.9,3s-0.8,3.1-2.7,3.1s-6.8-1.6-6.8-2.9C68.2,150.7,72.9,148.8,74.9,148.7z"/>
			<path class="st12" d="M76.5,151.7c0.2,1.5-0.8,2.8-2.3,3.1c0,0,0,0,0,0c0.3,0,0.5,0,0.8,0c2,0,2.8-1.4,2.7-3.1s-0.9-3-2.9-3
				c-0.3,0-0.5,0-0.8,0.1c1.5,0.1,2.6,1.4,2.5,2.9C76.6,151.7,76.5,151.7,76.5,151.7z"/>
			<path class="st12" d="M164.6,82.5c90.6,1.1,134.6,59.9,138.8,88.9c4.6-24-38.7-95.8-138.8-97c-100.2,1.2-143.5,73-138.8,97
				C30,142.4,74,83.6,164.6,82.5z"/>
		</g>
	</g>
</g>
</svg>
